<svg width="639" height="198" viewBox="0 0 639 198" fill="none" xmlns="http://www.w3.org/2000/svg">
<g clip-path="url(#clip0)">
<path d="M638.729 0H0V197.687H638.729V0Z" fill="#66CCFF"/>
<g style="mix-blend-mode:overlay" opacity="0.62">
<path d="M345.074 36.1041L323.519 35.5946H323.405H323.291L301.736 36.1041L188.924 175.441H323.291H323.519H457.886L345.074 36.1041Z" fill="#87DCF9"/>
</g>
<path d="M332.341 7.70482H314.455C314.447 6.00609 315.214 4.37413 316.587 3.16712C317.96 1.96011 319.827 1.27668 321.778 1.26681H324.932C325.906 1.26188 326.87 1.42494 327.771 1.74658C328.671 2.06822 329.49 2.54206 330.179 3.1407C330.867 3.73935 331.413 4.45093 331.784 5.23433C332.156 6.01772 332.345 6.8574 332.341 7.70482V7.70482Z" fill="#003366"/>
<path d="M332.341 7.67996H323.405H314.455L302.892 35.5946H323.405H343.918L332.341 7.67996Z" fill="#084C84"/>
<path d="M345.174 36.1041H301.622C301.179 36.1041 300.822 35.868 300.822 35.5946C300.822 35.3087 301.179 35.0726 301.622 35.0726H345.174C345.616 35.0726 345.987 35.3087 345.987 35.5946C346.044 35.868 345.616 36.1041 345.174 36.1041Z" fill="#FFCC00"/>
<path d="M328.915 3.3051C328.549 2.29273 327.802 1.41718 326.795 0.819648C325.787 0.222117 324.578 -0.0625606 323.362 0.0115253C322.145 -0.0609907 320.935 0.224113 319.925 0.821222C318.916 1.41833 318.166 2.29293 317.795 3.3051H328.915Z" fill="#003366"/>
<g style="mix-blend-mode:overlay" opacity="0.32">
<path d="M488.006 36.1041L466.451 35.5946H466.337H466.237L444.668 36.1041L331.87 175.441H466.237H466.451H600.818L488.006 36.1041Z" fill="#87DCF9"/>
</g>
<path d="M475.287 7.70482H457.387C457.387 6.00395 458.163 4.37274 459.544 3.17004C460.925 1.96734 462.799 1.29167 464.752 1.29167H467.893C468.862 1.2884 469.823 1.45186 470.72 1.77269C471.617 2.09351 472.432 2.56539 473.119 3.16123C473.806 3.75707 474.352 4.46516 474.724 5.24486C475.095 6.02456 475.287 6.86054 475.287 7.70482V7.70482Z" fill="#003366"/>
<path d="M475.287 7.67996H466.337H457.401L445.824 35.5946H466.337H486.849L475.287 7.67996Z" fill="#084C84"/>
<path d="M488.12 36.1041H444.539C444.097 36.1041 443.74 35.868 443.74 35.5946C443.74 35.3087 444.097 35.0726 444.539 35.0726H488.105C488.548 35.0726 488.905 35.3087 488.905 35.5946C488.919 35.868 488.562 36.1041 488.12 36.1041Z" fill="#FFCC00"/>
<path d="M471.904 3.3051C471.533 2.29293 470.783 1.41833 469.773 0.821222C468.764 0.224113 467.554 -0.0609907 466.337 0.0115253C465.121 -0.0625606 463.911 0.222117 462.904 0.819648C461.897 1.41718 461.15 2.29273 460.784 3.3051H471.904Z" fill="#003366"/>
<g style="mix-blend-mode:overlay" opacity="0.32">
<path d="M202.128 36.1041L180.573 35.5946H180.459H180.345L158.79 36.1041L45.9778 175.441H180.345H180.573H314.94L202.128 36.1041Z" fill="#87DCF9"/>
</g>
<path d="M189.409 7.70482H171.523C171.523 6.00395 172.299 4.37274 173.68 3.17004C175.062 1.96734 176.935 1.29167 178.889 1.29167H182.029C183.984 1.29167 185.859 1.96694 187.243 3.16928C188.626 4.37163 189.405 6.00281 189.409 7.70482V7.70482Z" fill="#003366"/>
<path d="M189.409 7.67996H180.459H171.523L159.946 35.5946H180.459H200.971L189.409 7.67996Z" fill="#084C84"/>
<path d="M202.242 36.1041H158.676C158.233 36.1041 157.877 35.868 157.877 35.5946C157.877 35.3087 158.233 35.0726 158.676 35.0726H202.242C202.685 35.0726 203.041 35.3087 203.041 35.5946C203.041 35.868 202.685 36.1041 202.242 36.1041Z" fill="#FFCC00"/>
<path d="M186.026 3.3051C185.655 2.29293 184.905 1.41833 183.896 0.821222C182.886 0.224113 181.676 -0.0609907 180.459 0.0115253C179.243 -0.0625606 178.034 0.222117 177.026 0.819648C176.019 1.41718 175.272 2.29273 174.906 3.3051H186.026Z" fill="#003366"/>
<path d="M639.06 152.697H7.73602V200.174H639.06V152.697Z" fill="#289FCE"/>
<path d="M76.7681 178.374H34.4153C37.7355 178.374 40.9197 179.522 43.2674 181.567C45.6152 183.611 46.9341 186.383 46.9341 189.274C46.9341 192.165 45.6152 194.937 43.2674 196.981C40.9197 199.025 37.7355 200.174 34.4153 200.174H76.7681C80.0883 200.174 83.2725 199.025 85.6202 196.981C87.968 194.937 89.2869 192.165 89.2869 189.274V189.274C89.2869 186.383 87.968 183.611 85.6202 181.567C83.2725 179.522 80.0883 178.374 76.7681 178.374Z" fill="#FF3399"/>
<path d="M40.1106 182.289H0V196.259H40.1106V182.289Z" fill="#FF3399"/>
<path d="M46.934 189.274C46.934 186.383 45.615 183.611 43.2673 181.567C40.9195 179.522 37.7353 178.374 34.4151 178.374H5.13329e-05V182.289H32.0884C34.216 182.289 36.2565 183.025 37.761 184.335C39.2655 185.645 40.1107 187.421 40.1107 189.274C40.1107 191.126 39.2655 192.903 37.761 194.213C36.2565 195.523 34.216 196.259 32.0884 196.259H-0.0284986V200.174H34.3866C36.033 200.177 37.6639 199.898 39.1861 199.351C40.7082 198.805 42.0917 198.003 43.2572 196.99C44.4227 195.978 45.3474 194.775 45.9783 193.451C46.6092 192.127 46.934 190.707 46.934 189.274Z" fill="#FF66CC"/>
<path d="M40.1106 189.274C40.1106 191.126 39.2654 192.903 37.7609 194.213C36.2565 195.523 34.2159 196.259 32.0883 196.259H0V182.289H32.0883C34.2159 182.289 36.2565 183.025 37.7609 184.335C39.2654 185.645 40.1106 187.421 40.1106 189.274Z" fill="white"/>
<path d="M5.62309 102.336H47.9759C44.6557 102.336 41.4715 101.188 39.1237 99.1436C36.776 97.0994 35.457 94.327 35.457 91.4362C35.457 88.5454 36.776 85.7729 39.1237 83.7288C41.4715 81.6847 44.6557 80.5363 47.9759 80.5363H5.62309C2.30289 80.5363 0 80.5363 0 80.5363L2.13733e-05 100.709C2.13733e-05 100.709 2.30289 102.336 5.62309 102.336Z" fill="#FF3399"/>
<path d="M84.6333 84.4513H42.2805V98.421H84.6333V84.4513Z" fill="#FF3399"/>
<path d="M35.4573 91.4362C35.4573 94.327 36.7763 97.0994 39.124 99.1436C41.4718 101.188 44.656 102.336 47.9762 102.336H140.761V98.4335H50.3029C48.1753 98.4335 46.1348 97.6976 44.6303 96.3877C43.1258 95.0777 42.2806 93.3011 42.2806 91.4486V91.4486C42.2806 89.5961 43.1258 87.8195 44.6303 86.5096C46.1348 85.1997 48.1753 84.4638 50.3029 84.4638H140.79V80.5363H48.0047C46.3583 80.5331 44.7274 80.8126 43.2052 81.3589C41.6831 81.9052 40.2996 82.7075 39.1341 83.72C37.9686 84.7325 37.0439 85.9352 36.413 87.2592C35.7821 88.5833 35.4573 90.0027 35.4573 91.4362V91.4362Z" fill="#FF66CC"/>
<path d="M42.2806 91.4362C42.2806 89.5837 43.1258 87.8071 44.6302 86.4971C46.1347 85.1872 48.1752 84.4513 50.3029 84.4513H136.208V98.4335H50.3029C49.2482 98.4335 48.2038 98.2524 47.2296 97.9006C46.2553 97.5488 45.3703 97.0332 44.6252 96.3833C43.8801 95.7333 43.2894 94.9619 42.8871 94.113C42.4848 93.2641 42.2787 92.3545 42.2806 91.4362V91.4362Z" fill="white"/>
<path d="M-2.914e-05 25.9873H22.7955C21.1515 25.9873 19.5236 25.7054 18.0048 25.1576C16.4859 24.6098 15.1058 23.8069 13.9433 22.7948C11.5956 20.7506 10.2767 17.9782 10.2767 15.0874C10.2767 12.1966 11.5956 9.42415 13.9433 7.38002C16.2911 5.3359 19.4753 4.18753 22.7955 4.18753L-4.12961e-05 4.18753C-3.268e-05 6.21658 -1.6316e-05 8.08155 -1.6316e-05 8.08155C-0.0018947 9.5134 -2.914e-05 18.0281 -2.914e-05 18.0281V25.9873Z" fill="#A5294D"/>
<path d="M59.453 8.10253H17.1002V22.0723H59.453V8.10253Z" fill="#FF3399"/>
<path d="M10.2769 15.0874C10.2769 17.9782 11.5958 20.7506 13.9436 22.7948C16.2913 24.8389 19.4755 25.9873 22.7957 25.9873H115.581V22.0723H25.1225C24.0685 22.0739 23.0244 21.8943 22.0503 21.5439C21.0761 21.1935 20.191 20.679 19.4456 20.0301C18.7003 19.3812 18.1095 18.6105 17.707 17.7623C17.3045 16.9141 17.0983 16.0051 17.1002 15.0874V15.0874C17.1002 13.2349 17.9454 11.4583 19.4498 10.1484C20.9543 8.83844 22.9948 8.10253 25.1225 8.10253H115.595V4.18753H22.81C21.1648 4.1859 19.5354 4.46662 18.0149 5.01366C16.4944 5.5607 15.1126 6.36332 13.9486 7.37563C12.7846 8.38794 11.8612 9.59008 11.2312 10.9133C10.6012 12.2366 10.2769 13.655 10.2769 15.0874V15.0874Z" fill="#C64566"/>
<path d="M17.1002 15.0874C17.1002 13.2349 17.9454 11.4583 19.4499 10.1484C20.9543 8.83844 22.9949 8.10253 25.1225 8.10253H110.97V22.0723H25.1225C24.0685 22.0739 23.0244 21.8943 22.0503 21.5439C21.0761 21.1935 20.191 20.679 19.4457 20.0301C18.7003 19.3812 18.1095 18.6105 17.707 17.7623C17.3045 16.9141 17.0983 16.0051 17.1002 15.0874V15.0874Z" fill="white"/>
<path d="M144.872 149.453H110.813C115.217 149.456 119.44 150.982 122.553 153.694C125.666 156.407 127.414 160.085 127.414 163.92V163.92C127.414 167.753 125.665 171.43 122.552 174.141C119.439 176.851 115.216 178.374 110.813 178.374H144.872C149.275 178.374 153.498 176.851 156.611 174.141C159.725 171.43 161.474 167.753 161.474 163.92V163.92C161.476 162.02 161.048 160.14 160.214 158.384C159.381 156.629 158.158 155.034 156.616 153.691C155.075 152.347 153.244 151.281 151.229 150.554C149.214 149.827 147.054 149.453 144.872 149.453V149.453Z" fill="#CE9F1D"/>
<path d="M118.379 154.648H62.2079V173.179H118.379V154.648Z" fill="#FF3399"/>
<path d="M127.414 163.92C127.414 160.085 125.666 156.407 122.553 153.694C119.44 150.982 115.217 149.456 110.813 149.453L-3.05176e-05 149.453V154.648L107.729 154.648C110.551 154.651 113.256 155.63 115.25 157.368C117.244 159.106 118.364 161.463 118.364 163.92C118.36 166.374 117.239 168.728 115.245 170.463C113.252 172.199 110.549 173.176 107.729 173.179L-3.05176e-05 173.179V178.374L110.813 178.374C112.993 178.374 115.152 178 117.166 177.274C119.18 176.547 121.01 175.483 122.552 174.141C124.093 172.798 125.316 171.205 126.15 169.451C126.985 167.698 127.414 165.818 127.414 163.92Z" fill="#EFC642"/>
<path d="M118.364 163.92C118.36 166.374 117.239 168.728 115.245 170.463C113.252 172.199 110.549 173.176 107.729 173.179H0V154.648H107.729C110.551 154.651 113.256 155.63 115.25 157.368C117.244 159.106 118.364 161.463 118.364 163.92Z" fill="white"/>
<path d="M84.4193 25.9873H31.5175C34.2333 25.9873 36.8381 26.9257 38.7597 28.5966C40.6814 30.2674 41.7629 32.534 41.7667 34.8986C41.7667 37.2653 40.6869 39.5351 38.7648 41.2086C36.8427 42.8821 34.2358 43.8223 31.5175 43.8223H84.4193C85.7645 43.8223 87.0966 43.5914 88.3393 43.1428C89.582 42.6942 90.7109 42.0366 91.6615 41.2078C92.6121 40.379 93.3657 39.3952 93.8792 38.3126C94.3927 37.23 94.656 36.0699 94.6542 34.8986V34.8986C94.6542 33.7283 94.3894 32.5695 93.8751 31.4884C93.3607 30.4072 92.6068 29.4248 91.6564 28.5973C90.706 27.7698 89.5777 27.1134 88.336 26.6656C87.0942 26.2178 85.7633 25.9873 84.4193 25.9873V25.9873Z" fill="#66AB7E"/>
<path d="M36.1853 29.1938H1.55508V40.6157H36.1853V29.1938Z" fill="#FF3399"/>
<path d="M41.7664 34.8986C41.7664 33.7273 41.5012 32.5675 40.986 31.4855C40.4708 30.4035 39.7156 29.4206 38.7637 28.5929C37.8118 27.7653 36.6818 27.1091 35.4384 26.662C34.195 26.2149 32.8625 25.9856 31.5173 25.9873H0V29.1938H29.6187C31.3578 29.1938 33.0258 29.7945 34.2568 30.864C35.4878 31.9334 36.1813 33.3844 36.1851 34.8986C36.1851 35.6493 36.0152 36.3928 35.6852 37.0864C35.3552 37.7801 34.8716 38.4103 34.2618 38.9412C33.6521 39.4721 32.9282 39.8932 32.1316 40.1805C31.3349 40.4678 30.481 40.6157 29.6187 40.6157H0V43.8223H31.5173C32.8637 43.8239 34.1973 43.5942 35.4417 43.1463C36.686 42.6985 37.8166 42.0412 38.7687 41.2122C39.7208 40.3833 40.4757 39.3989 40.9901 38.3155C41.5045 37.232 41.7683 36.0709 41.7664 34.8986Z" fill="#79D394"/>
<path d="M36.1851 34.8986C36.1851 35.6493 36.0153 36.3928 35.6853 37.0864C35.3553 37.7801 34.8716 38.4103 34.2619 38.9412C33.6521 39.4721 32.9283 39.8932 32.1316 40.1805C31.3349 40.4678 30.4811 40.6157 29.6188 40.6157H-3.05176e-05V29.1938L29.6188 29.1938C31.3578 29.1938 33.0258 29.7945 34.2568 30.864C35.4879 31.9334 36.1813 33.3844 36.1851 34.8986Z" fill="white"/>
<path d="M107.287 61.2472H69.8306C72.7672 61.2505 75.5825 62.2676 77.6591 64.0756C79.7356 65.8836 80.9039 68.3348 80.9077 70.8917C80.9077 72.1583 80.6212 73.4124 80.0645 74.5826C79.5078 75.7527 78.6919 76.8159 77.6633 77.7115C76.6347 78.6071 75.4135 79.3175 74.0696 79.8022C72.7257 80.2869 71.2852 80.5363 69.8306 80.5363H107.287C108.742 80.538 110.184 80.2896 111.528 79.8055C112.873 79.3214 114.095 78.611 115.124 77.7151C116.153 76.8192 116.969 75.7554 117.525 74.5845C118.081 73.4136 118.366 72.1587 118.364 70.8917C118.364 68.3338 117.197 65.8807 115.12 64.072C113.043 62.2633 110.225 61.2472 107.287 61.2472V61.2472Z" fill="#CE9F1D"/>
<path d="M74.8838 64.7147H37.4129V77.0812H74.8838V64.7147Z" fill="#FF3399"/>
<path d="M80.9075 70.8918C80.9037 68.3349 79.7354 65.8836 77.6589 64.0756C75.5824 62.2676 72.767 61.2505 69.8304 61.2472L-3.05176e-05 61.2472V64.7147L67.7748 64.7147C69.6678 64.7147 71.4832 65.3695 72.8217 66.5349C74.1602 67.7003 74.9121 69.2809 74.9121 70.929C74.9121 72.5772 74.1602 74.1578 72.8217 75.3232C71.4832 76.4886 69.6678 77.1433 67.7748 77.1433L-3.05176e-05 77.1433V80.5363L69.8304 80.5363C72.7682 80.5363 75.5857 79.5202 77.6631 77.7115C79.7404 75.9028 80.9075 73.4497 80.9075 70.8918Z" fill="#EFC642"/>
<path d="M74.8265 70.8917C74.8265 72.5399 74.0745 74.1205 72.736 75.2859C71.3975 76.4513 69.5821 77.106 67.6892 77.106H0V64.7147L67.7748 64.7147C69.6455 64.7343 71.4326 65.3925 72.7514 66.5477C74.0703 67.703 74.8154 69.2629 74.8265 70.8917Z" fill="white"/>
<path d="M60.8805 125.739H4.70984V144.27H60.8805V125.739Z" fill="#FF3399"/>
<path d="M0.000881582 125.254L0.522753 124.778C3.63612 122.067 7.85874 120.544 12.2617 120.544H135.337V125.776H15.345C13.9473 125.775 12.5629 126.013 11.271 126.478C9.97906 126.942 8.80502 127.624 7.816 128.484C6.82697 129.344 6.04236 130.365 5.50703 131.489C4.9717 132.614 4.69615 133.819 4.69615 135.036C4.69615 137.495 5.81809 139.853 7.81514 141.592C9.81218 143.331 12.5208 144.307 15.345 144.307H135.337V149.49H12.2617C10.0774 149.492 7.91431 149.118 5.89649 148.39C3.87867 147.661 2.04589 146.593 0.503375 145.247C-1.03914 143.9 0.000881582 144.846 0.000881582 144.846V125.254Z" fill="#4561BA"/>
<path d="M4.69553 134.998C4.69553 137.457 5.81746 139.816 7.81451 141.554C9.81156 143.293 12.5201 144.27 15.3444 144.27H129.199V125.776H15.3444C12.5289 125.773 9.82671 126.742 7.83048 128.471C5.83425 130.2 4.70686 132.547 4.69553 134.998V134.998Z" fill="white"/>
<path d="M31.2603 46.9543H-3.05176e-05V58.1276H31.2603V46.9543Z" fill="#FF3399"/>
<path d="M-1.64579e-05 43.8347H1.92597H76.154V46.9543H3.79594C2.09478 46.9576 -1.75266e-05 47.8677 -1.75266e-05 47.8677V57.1925C-1.75266e-05 57.1925 2.09609 58.1276 3.79594 58.1276H76.154V61.2596H1.92597C0.611362 61.2596 -2.94489e-05 61.2596 -2.94489e-05 61.2596L-1.64579e-05 43.8347Z" fill="#4561BA"/>
<path d="M-3.05176e-05 47.8677L-8.34277e-06 57.1925C-8.34277e-06 57.1925 2.09609 58.1152 3.79595 58.1152H72.4568V46.9294H3.79595C2.95239 46.9311 2.11746 47.0773 1.33883 47.3599C0.560207 47.6425 -3.05176e-05 47.8677 -3.05176e-05 47.8677Z" fill="white"/>
<path d="M16.1723 102.336H51.5306C48.758 102.339 46.1003 103.301 44.1411 105.009C42.182 106.717 41.0816 109.032 41.0816 111.446V111.446C41.0816 113.859 42.1824 116.173 44.142 117.879C46.1016 119.585 48.7593 120.544 51.5306 120.544H16.1723C13.4011 120.544 10.7433 119.585 8.78378 117.879C6.8242 116.173 5.72333 113.859 5.72333 111.446V111.446C5.72333 109.032 6.82375 106.717 8.78291 105.009C10.7421 103.301 13.3998 102.339 16.1723 102.336V102.336Z" fill="#FF6699"/>
<path d="M82.1353 105.617H46.7771V117.288H82.1353V105.617Z" fill="#FF3399"/>
<path d="M41.0815 111.446C41.0815 109.032 42.1819 106.717 44.1411 105.009C46.1003 103.301 48.758 102.339 51.5305 102.336H106.545V105.605H53.4148C52.5344 105.605 51.6627 105.756 50.8495 106.05C50.0363 106.343 49.2976 106.774 48.6758 107.316C48.0539 107.859 47.5611 108.503 47.2255 109.212C46.8899 109.92 46.7181 110.68 46.72 111.446V111.446C46.72 112.992 47.4253 114.475 48.6808 115.568C49.9364 116.661 51.6392 117.275 53.4148 117.275H106.545V120.544H51.5305C48.7593 120.544 46.1015 119.585 44.142 117.879C42.1824 116.173 41.0815 113.859 41.0815 111.446V111.446Z" fill="#FF99CC"/>
<path d="M46.7771 111.446C46.7771 109.9 47.4824 108.418 48.7379 107.324C49.9935 106.231 51.6963 105.617 53.4719 105.617H102.619V117.275H53.4861C52.6058 117.277 51.7337 117.127 50.9198 116.835C50.1059 116.543 49.3662 116.114 48.743 115.572C48.1198 115.031 47.6254 114.388 47.288 113.68C46.9507 112.972 46.7771 112.213 46.7771 111.446V111.446Z" fill="white"/>
<path d="M638.655 178.374H603.858C605.503 178.372 607.132 178.653 608.651 179.2C610.171 179.748 611.552 180.55 612.715 181.563C613.878 182.575 614.8 183.778 615.428 185.101C616.057 186.424 616.379 187.842 616.377 189.274C616.377 192.165 615.058 194.937 612.711 196.981C610.363 199.025 607.179 200.174 603.858 200.174H638.655V178.374Z" fill="#FF3399"/>
<path d="M609.568 182.289H567.215V196.259H609.568V182.289Z" fill="#FF3399"/>
<path d="M616.377 189.274C616.379 187.842 616.057 186.424 615.428 185.101C614.8 183.778 613.878 182.575 612.715 181.563C611.552 180.55 610.171 179.748 608.651 179.2C607.132 178.653 605.503 178.372 603.858 178.374H511.073V182.289H601.56C602.615 182.287 603.66 182.467 604.635 182.817C605.61 183.168 606.496 183.682 607.242 184.331C607.989 184.979 608.581 185.75 608.985 186.598C609.389 187.446 609.597 188.356 609.597 189.274V189.274C609.593 191.128 608.745 192.904 607.238 194.214C605.731 195.523 603.689 196.259 601.56 196.259H511.059V200.174H603.844C605.489 200.175 607.119 199.895 608.639 199.348C610.16 198.801 611.542 197.998 612.706 196.986C613.87 195.973 614.793 194.771 615.423 193.448C616.053 192.125 616.377 190.706 616.377 189.274Z" fill="#FF66CC"/>
<path d="M609.568 189.274C609.564 191.128 608.716 192.904 607.209 194.214C605.703 195.523 603.661 196.259 601.532 196.259H515.684V182.289H601.56C603.685 182.292 605.722 183.03 607.224 184.339C608.725 185.649 609.568 187.424 609.568 189.274V189.274Z" fill="white"/>
<path d="M575.081 102.336H617.433C614.113 102.336 610.929 101.188 608.581 99.1436C606.234 97.0994 604.915 94.327 604.915 91.4362C604.915 88.5454 606.234 85.7729 608.581 83.7288C610.929 81.6847 614.113 80.5363 617.433 80.5363H575.081C571.761 80.5363 568.576 81.6847 566.229 83.7288C563.881 85.7729 562.562 88.5454 562.562 91.4362C562.562 94.327 563.881 97.0994 566.229 99.1436C568.576 101.188 571.761 102.336 575.081 102.336Z" fill="#FF3399"/>
<path d="M638.574 84.4513H611.738V98.421H638.574V84.4513Z" fill="#FF3399"/>
<path d="M604.915 91.4362C604.915 94.327 606.234 97.0994 608.581 99.1436C610.929 101.188 614.113 102.336 617.434 102.336H638.621V98.4335H619.76C617.633 98.4335 615.592 97.6976 614.088 96.3877C612.583 95.0777 611.738 93.3011 611.738 91.4486C611.738 89.5961 612.583 87.8195 614.088 86.5096C615.592 85.1997 617.633 84.4638 619.76 84.4638H638.65V80.5363H617.462C615.816 80.5331 614.185 80.8126 612.663 81.3589C611.141 81.9052 609.757 82.7075 608.592 83.72C607.426 84.7325 606.501 85.9352 605.87 87.2592C605.24 88.5833 604.915 90.0027 604.915 91.4362Z" fill="#FF66CC"/>
<path d="M611.738 91.4362C611.738 89.5837 612.583 87.8071 614.088 86.4971C615.592 85.1872 617.633 84.4513 619.76 84.4513L638.631 84.4513V98.4335L619.76 98.4335C618.706 98.4335 617.661 98.2524 616.687 97.9006C615.713 97.5488 614.828 97.0332 614.083 96.3833C613.338 95.7333 612.747 94.9619 612.345 94.113C611.942 93.2641 611.736 92.3545 611.738 91.4362Z" fill="white"/>
<path d="M549.886 25.9873H592.253C590.608 25.9889 588.978 25.7082 587.458 25.1611C585.937 24.6141 584.556 23.8115 583.392 22.7992C582.228 21.7869 581.304 20.5847 580.674 19.2615C580.044 17.9382 579.72 16.5198 579.72 15.0874V15.0874C579.724 12.1954 581.046 9.42304 583.396 7.37927C585.746 5.33551 588.932 4.18753 592.253 4.18753H549.886C548.238 4.18262 546.606 4.46093 545.082 5.00651C543.558 5.55208 542.173 6.35418 541.006 7.36681C539.839 8.37945 538.913 9.5827 538.281 10.9076C537.65 12.2324 537.324 13.6529 537.324 15.0874V15.0874C537.324 16.5219 537.65 17.9424 538.281 19.2672C538.913 20.5921 539.839 21.7953 541.006 22.808C542.173 23.8206 543.558 24.6227 545.082 25.1683C546.606 25.7139 548.238 25.9922 549.886 25.9873Z" fill="#A5294D"/>
<path d="M628.91 8.10253H586.558V22.0723H628.91V8.10253Z" fill="#FF3399"/>
<path d="M579.72 15.0874C579.72 16.5198 580.044 17.9382 580.674 19.2615C581.304 20.5847 582.228 21.7869 583.392 22.7992C584.556 23.8115 585.937 24.6141 587.458 25.1611C588.978 25.7082 590.608 25.9889 592.253 25.9873H638.641V22.0723H594.566C592.438 22.0723 590.397 21.3364 588.893 20.0264C587.388 18.7165 586.543 16.9399 586.543 15.0874C586.543 13.2349 587.388 11.4583 588.893 10.1484C590.397 8.83844 592.438 8.10253 594.566 8.10253H638.655V4.18753H592.267C590.621 4.1859 588.991 4.46653 587.47 5.01342C585.949 5.56031 584.566 6.36273 583.401 7.37488C582.236 8.38702 581.311 9.58907 580.679 10.9124C580.048 12.2357 579.722 13.6544 579.72 15.0874Z" fill="#C64566"/>
<path d="M586.543 15.0874C586.543 13.2349 587.389 11.4583 588.893 10.1484C590.398 8.83844 592.438 8.10253 594.566 8.10253H638.651V22.0723H594.566C592.438 22.0723 590.398 21.3364 588.893 20.0264C587.389 18.7165 586.543 16.9399 586.543 15.0874Z" fill="white"/>
<path d="M638.65 178.374V149.453L522.122 149.453V154.648L638.65 154.648V173.179L522.122 173.179V178.374L638.65 178.374Z" fill="#EFC642"/>
<path d="M638.646 154.648V173.179L528.26 173.179V154.648L638.646 154.648Z" fill="white"/>
<path d="M638.65 25.9873H600.975C603.689 25.9873 606.293 26.9261 608.212 28.5973C610.132 30.2685 611.21 32.5351 611.21 34.8986C611.212 36.0699 610.948 37.23 610.435 38.3126C609.921 39.3952 609.168 40.379 608.217 41.2078C607.267 42.0366 606.138 42.6942 604.895 43.1428C603.652 43.5914 602.32 43.8223 600.975 43.8223H638.65V25.9873Z" fill="#66AB7E"/>
<path d="M605.643 29.1938H571.012V40.6157H605.643V29.1938Z" fill="#FF3399"/>
<path d="M611.21 34.8986C611.21 32.5351 610.131 30.2685 608.212 28.5973C606.293 26.9261 603.689 25.9873 600.975 25.9873H554.054V29.1938H599.076C600.815 29.1938 602.483 29.7945 603.714 30.864C604.945 31.9334 605.639 33.3844 605.643 34.8986C605.643 36.4148 604.951 37.869 603.719 38.9412C602.488 40.0134 600.818 40.6157 599.076 40.6157H554.054V43.8223H600.975C602.32 43.8223 603.652 43.5914 604.895 43.1428C606.138 42.6942 607.266 42.0366 608.217 41.2078C609.168 40.379 609.921 39.3952 610.435 38.3126C610.948 37.23 611.212 36.0699 611.21 34.8986V34.8986Z" fill="#79D394"/>
<path d="M605.643 34.8986C605.643 36.4148 604.951 37.869 603.72 38.9412C602.488 40.0134 600.818 40.6157 599.076 40.6157H557.837V29.1938H599.076C600.815 29.1938 602.483 29.7945 603.714 30.864C604.945 31.9334 605.639 33.3844 605.643 34.8986Z" fill="white"/>
<path d="M638.642 64.7147H606.856V77.0812H638.642V64.7147Z" fill="#FF3399"/>
<path d="M638.638 70.869V61.2472H557.18V64.7147L638.67 64.6524L638.638 70.869V77.0856L557.18 77.1433V80.5363H638.638V70.869Z" fill="#EFC642"/>
<path d="M638.729 68.3824V77.0856C638.729 77.0856 638.729 77.0856 637.247 77.106H561.306V64.7147L638.729 64.6524V68.3824Z" fill="white"/>
<path d="M525.548 120.544H581.718C577.314 120.544 573.09 122.066 569.974 124.777C566.859 127.487 565.107 131.164 565.103 134.998V134.998C565.103 136.898 565.533 138.778 566.368 140.533C567.203 142.287 568.427 143.881 569.97 145.224C571.513 146.566 573.345 147.63 575.361 148.356C577.377 149.082 579.537 149.454 581.718 149.453H525.548C523.367 149.454 521.206 149.082 519.19 148.356C517.175 147.63 515.343 146.566 513.8 145.224C512.257 143.881 511.032 142.287 510.197 140.533C509.362 138.778 508.932 136.898 508.932 134.998V134.998C508.936 131.164 510.688 127.487 513.804 124.777C516.919 122.066 521.144 120.544 525.548 120.544V120.544Z" fill="#354896"/>
<path d="M630.324 125.739H574.153V144.27H630.324V125.739Z" fill="#FF3399"/>
<path d="M565.103 134.998C565.107 131.164 566.859 127.487 569.975 124.777C573.09 122.066 577.314 120.544 581.719 120.544L638.637 120.544V125.776L584.788 125.776C581.967 125.776 579.262 126.752 577.268 128.488C575.274 130.225 574.153 132.58 574.153 135.036C574.153 137.493 575.273 139.849 577.267 141.587C579.261 143.326 581.966 144.304 584.788 144.307L638.637 144.307V149.49L581.719 149.49C579.534 149.492 577.37 149.118 575.351 148.39C573.333 147.662 571.499 146.594 569.955 145.248C568.412 143.901 567.188 142.303 566.356 140.544C565.523 138.785 565.097 136.901 565.103 134.998Z" fill="#4561BA"/>
<path d="M574.153 134.998C574.153 137.455 575.273 139.812 577.267 141.55C579.261 143.288 581.966 144.267 584.788 144.27L638.646 144.27V125.776L584.788 125.776C581.975 125.776 579.276 126.747 577.283 128.475C575.29 130.204 574.164 132.549 574.153 134.998Z" fill="white"/>
<path d="M537.524 43.8223H571.398C568.748 43.8223 566.206 44.7389 564.332 46.3704C562.458 48.002 561.406 50.2149 561.406 52.5223C561.406 54.8297 562.458 57.0425 564.332 58.6741C566.206 60.3057 568.748 61.2223 571.398 61.2223H537.524C534.874 61.2223 532.333 60.3057 530.459 58.6741C528.585 57.0425 527.532 54.8297 527.532 52.5223V52.5223C527.532 50.2149 528.585 48.002 530.459 46.3704C532.333 44.7389 534.874 43.8223 537.524 43.8223V43.8223Z" fill="#354896"/>
<path d="M600.718 46.9543H566.844V58.1276H600.718V46.9543Z" fill="#FF3399"/>
<path d="M561.377 52.5347C561.377 50.2273 562.43 48.0144 564.304 46.3829C566.178 44.7513 568.719 43.8347 571.369 43.8347H638.651V46.9543H573.254C571.551 46.9576 569.92 47.5479 568.716 48.596C567.512 49.6442 566.834 51.0648 566.83 52.5471C566.834 54.0283 567.512 55.4477 568.717 56.4939C569.921 57.54 571.553 58.1276 573.254 58.1276H638.651V61.2596H571.369C570.055 61.2596 568.753 61.0337 567.539 60.595C566.325 60.1562 565.222 59.5131 564.294 58.7026C563.365 57.8921 562.63 56.9301 562.13 55.8717C561.629 54.8133 561.373 53.6793 561.377 52.5347Z" fill="#4561BA"/>
<path d="M566.83 52.5347C566.834 54.0159 567.512 55.4353 568.716 56.4814C569.921 57.5276 571.552 58.1152 573.254 58.1152L638.65 58.1396V46.9294H573.254C571.549 46.9327 569.915 47.5247 568.711 48.5756C567.506 49.6264 566.83 51.0503 566.83 52.5347Z" fill="white"/>
<path d="M585.63 102.336H620.988C618.215 102.339 615.558 103.301 613.599 105.009C611.639 106.717 610.539 109.032 610.539 111.446V111.446C610.539 113.859 611.64 116.173 613.599 117.879C615.559 119.585 618.217 120.544 620.988 120.544H585.63C582.859 120.544 580.201 119.585 578.241 117.879C576.282 116.173 575.181 113.859 575.181 111.446C575.181 109.032 576.281 106.717 578.24 105.009C580.199 103.301 582.857 102.339 585.63 102.336V102.336Z" fill="#FF6699"/>
<path d="M638.646 105.617H616.235V117.288H638.646V105.617Z" fill="#FF3399"/>
<path d="M610.496 111.446C610.496 109.032 611.597 106.717 613.556 105.009C615.515 103.301 618.173 102.339 620.945 102.336H638.644V105.605H622.929C622.049 105.605 621.177 105.756 620.364 106.05C619.551 106.343 618.812 106.774 618.19 107.316C617.568 107.859 617.076 108.503 616.74 109.212C616.404 109.92 616.233 110.68 616.234 111.446C616.234 112.992 616.94 114.475 618.195 115.568C619.451 116.661 621.154 117.275 622.929 117.275H638.686V120.544H620.945C618.174 120.544 615.516 119.585 613.557 117.879C611.597 116.173 610.496 113.859 610.496 111.446Z" fill="#FF99CC"/>
<path d="M616.235 111.446C616.235 109.9 616.94 108.418 618.195 107.324C619.451 106.231 621.154 105.617 622.929 105.617H638.65V117.288L622.944 117.288C622.062 117.289 621.189 117.139 620.374 116.846C619.559 116.553 618.819 116.123 618.195 115.58C617.572 115.038 617.078 114.393 616.741 113.684C616.405 112.974 616.233 112.214 616.235 111.446Z" fill="white"/>
<path d="M466.794 172.421C466.794 172.421 426.268 162.577 406.326 155.506C370.069 142.654 343.761 143.785 323.405 163.721V179.008H471.661L466.794 172.421Z" fill="white"/>
<path d="M180.016 172.421C180.016 172.421 220.528 162.577 240.469 155.506C276.741 142.654 303.049 143.785 323.405 163.721V179.008H175.163L180.016 172.421Z" fill="#EFEFED"/>
<path d="M334.254 177.728C334.254 172.508 329.4 165.772 323.405 165.772C317.41 165.772 312.542 172.508 312.542 177.728C312.489 178.998 312.731 180.264 313.252 181.451C313.774 182.638 314.565 183.721 315.579 184.636C316.592 185.551 317.806 186.279 319.15 186.776C320.493 187.273 321.938 187.529 323.398 187.529C324.858 187.529 326.302 187.273 327.646 186.776C328.989 186.279 330.204 185.551 331.217 184.636C332.23 183.721 333.022 182.638 333.543 181.451C334.065 180.264 334.307 178.998 334.254 177.728V177.728Z" fill="#293060"/>
<path d="M312.485 179.008C312.427 178.625 312.399 178.239 312.399 177.852C312.399 172.558 317.324 165.759 323.405 165.759C329.486 165.759 334.411 172.558 334.411 177.852C334.411 178.237 334.411 178.623 334.325 178.996C336.024 177.902 337.18 177.019 337.18 176.97C336.652 170.755 330.671 163.298 323.348 163.298C316.025 163.298 310.03 170.755 309.501 176.97C309.63 177.019 310.772 177.902 312.485 179.008Z" fill="#FFCC00"/>
<path d="M337.237 176.97C337.237 176.97 329.158 183.271 323.405 183.283V189.324C326.129 189.32 328.811 188.74 331.221 187.633C333.63 186.527 335.695 184.928 337.237 182.973V182.973H476.4V176.92L337.237 176.97Z" fill="#FFCC00"/>
<path d="M309.559 176.97C309.559 176.97 317.652 183.271 323.405 183.283V189.324C320.679 189.322 317.994 188.743 315.581 187.636C313.169 186.53 311.102 184.929 309.559 182.973H170.467V176.92L309.559 176.97Z" fill="#E2B807"/>
<path d="M337.308 129.89L326.731 124.534C326.475 124.368 326.184 124.25 325.874 124.186C325.695 124.155 325.511 124.155 325.332 124.186H325.218H324.961H324.847L263.694 137.956C263.161 138.1 262.712 138.417 262.441 138.841C262.169 139.265 262.095 139.764 262.235 140.234C262.374 140.704 262.717 141.11 263.19 141.366C263.664 141.622 264.233 141.71 264.779 141.61L325.932 127.84C326.101 127.8 326.264 127.741 326.417 127.666L335.653 132.401C336.024 132.592 336.467 132.646 336.884 132.553C337.302 132.46 337.659 132.226 337.879 131.904V131.904C338 131.74 338.08 131.557 338.117 131.366C338.153 131.174 338.144 130.978 338.091 130.79C338.037 130.602 337.94 130.425 337.806 130.27C337.671 130.115 337.502 129.986 337.308 129.89V129.89Z" fill="#563917"/>
<path d="M307.66 136.303L317.524 129.965C317.751 129.765 318.03 129.615 318.337 129.53C318.505 129.468 318.684 129.434 318.866 129.43H319.365L381.817 137.633C382.113 137.655 382.4 137.729 382.662 137.851C382.923 137.974 383.153 138.141 383.337 138.344C383.521 138.547 383.656 138.78 383.732 139.03C383.808 139.28 383.825 139.54 383.781 139.796C383.737 140.052 383.633 140.297 383.476 140.516C383.319 140.735 383.112 140.924 382.867 141.071C382.623 141.217 382.347 141.319 382.056 141.369C381.764 141.419 381.464 141.417 381.174 141.362L318.709 133.234C318.539 133.204 318.372 133.162 318.209 133.109L309.644 138.652C309.297 138.874 308.864 138.967 308.439 138.911C308.013 138.855 307.631 138.655 307.375 138.354C307.232 138.206 307.126 138.033 307.063 137.848C307 137.662 306.981 137.467 307.008 137.275C307.034 137.083 307.106 136.897 307.218 136.73C307.331 136.563 307.481 136.418 307.66 136.303V136.303Z" fill="#3F270F"/>
<path d="M288.803 119.885C283.453 119.883 278.221 121.262 273.771 123.848C269.321 126.435 265.851 130.112 263.802 134.416C261.752 138.719 261.214 143.455 262.257 148.025C263.299 152.594 265.874 156.792 269.656 160.087C273.439 163.382 278.259 165.626 283.507 166.536C288.754 167.446 294.194 166.98 299.137 165.198C304.081 163.416 308.307 160.397 311.28 156.524C314.253 152.65 315.839 148.096 315.839 143.437C315.841 140.345 315.143 137.283 313.786 134.425C312.428 131.568 310.437 128.971 307.926 126.784C305.415 124.597 302.434 122.862 299.153 121.678C295.872 120.494 292.355 119.885 288.803 119.885V119.885ZM288.803 163.907C284.149 163.91 279.599 162.71 275.728 160.461C271.858 158.211 268.84 155.012 267.058 151.269C265.276 147.526 264.809 143.406 265.716 139.432C266.623 135.458 268.864 131.807 272.155 128.942C275.445 126.077 279.638 124.126 284.203 123.336C288.768 122.546 293.499 122.952 297.798 124.504C302.097 126.056 305.771 128.683 308.355 132.053C310.939 135.424 312.316 139.385 312.314 143.437C312.314 148.866 309.837 154.073 305.428 157.912C301.019 161.751 295.039 163.907 288.803 163.907V163.907Z" fill="#563917"/>
<path opacity="0.42" d="M288.803 163.907C301.788 163.907 312.314 154.743 312.314 143.437C312.314 132.132 301.788 122.967 288.803 122.967C275.819 122.967 265.293 132.132 265.293 143.437C265.293 154.743 275.819 163.907 288.803 163.907Z" fill="#F2EEEB"/>
<path d="M277.441 132.513C280.203 130.338 283.719 129.026 287.433 128.784C287.806 128.769 288.159 128.633 288.423 128.403C288.687 128.173 288.843 127.866 288.86 127.541V127.541C288.859 127.359 288.815 127.179 288.73 127.012C288.645 126.845 288.522 126.696 288.368 126.572C288.214 126.449 288.033 126.354 287.835 126.294C287.637 126.234 287.428 126.21 287.219 126.224C282.862 126.543 278.745 128.097 275.499 130.648C275.345 130.772 275.222 130.922 275.138 131.089C275.054 131.255 275.011 131.436 275.011 131.618C275.011 131.8 275.054 131.98 275.138 132.147C275.222 132.314 275.345 132.464 275.499 132.587V132.587C275.774 132.791 276.127 132.896 276.487 132.882C276.847 132.868 277.188 132.736 277.441 132.513Z" fill="#F2EEEB"/>
<path d="M271.916 143.437C271.912 141.291 272.448 139.17 273.487 137.223C273.573 137.077 273.625 136.918 273.64 136.754C273.655 136.591 273.632 136.426 273.574 136.27C273.516 136.114 273.422 135.97 273.299 135.845C273.177 135.721 273.027 135.619 272.859 135.545C272.677 135.458 272.477 135.404 272.27 135.386C272.064 135.368 271.856 135.387 271.658 135.442C271.46 135.497 271.278 135.586 271.121 135.704C270.964 135.822 270.836 135.967 270.746 136.129C269.292 138.878 268.687 141.909 268.99 144.923C269.293 147.938 270.494 150.831 272.473 153.318C272.594 153.466 272.748 153.59 272.927 153.683C273.105 153.776 273.304 153.836 273.51 153.859C273.716 153.883 273.926 153.869 274.126 153.818C274.326 153.768 274.511 153.682 274.671 153.567V153.567C274.97 153.369 275.168 153.077 275.221 152.754C275.274 152.431 275.18 152.102 274.957 151.839C272.979 149.376 271.918 146.443 271.916 143.437V143.437Z" fill="#F2EEEB"/>
<path d="M357.992 119.885C352.642 119.885 347.412 121.267 342.964 123.854C338.516 126.442 335.048 130.121 333.001 134.424C330.954 138.728 330.418 143.463 331.462 148.032C332.505 152.601 335.082 156.797 338.865 160.091C342.648 163.385 347.468 165.628 352.715 166.537C357.962 167.446 363.401 166.979 368.344 165.197C373.287 163.414 377.512 160.395 380.484 156.522C383.456 152.649 385.043 148.096 385.043 143.437C385.045 140.344 384.346 137.281 382.988 134.422C381.629 131.564 379.636 128.967 377.124 126.78C374.612 124.592 371.629 122.858 368.346 121.675C365.064 120.492 361.545 119.884 357.992 119.885V119.885ZM357.992 163.907C353.339 163.907 348.79 162.706 344.921 160.454C341.052 158.203 338.037 155.004 336.257 151.26C334.477 147.517 334.012 143.398 334.921 139.424C335.83 135.451 338.072 131.801 341.363 128.937C344.654 126.073 348.847 124.124 353.412 123.335C357.976 122.546 362.706 122.953 367.005 124.505C371.303 126.058 374.976 128.685 377.559 132.055C380.143 135.425 381.52 139.386 381.517 143.437C381.513 148.867 379.033 154.074 374.622 157.913C370.21 161.751 364.229 163.907 357.992 163.907Z" fill="#563917"/>
<path opacity="0.42" d="M358.007 163.907C370.991 163.907 381.517 154.743 381.517 143.437C381.517 132.132 370.991 122.967 358.007 122.967C345.022 122.967 334.496 132.132 334.496 143.437C334.496 154.743 345.022 163.907 358.007 163.907Z" fill="#F2EEEB"/>
<path d="M346.644 132.513C349.406 130.338 352.922 129.026 356.636 128.784C357 128.765 357.341 128.626 357.591 128.395C357.84 128.164 357.979 127.858 357.978 127.541C357.979 127.358 357.936 127.177 357.852 127.01C357.768 126.842 357.645 126.692 357.491 126.568C357.336 126.444 357.154 126.349 356.955 126.29C356.756 126.231 356.546 126.208 356.337 126.224C351.984 126.545 347.873 128.099 344.631 130.648C344.477 130.772 344.354 130.922 344.27 131.088C344.186 131.255 344.143 131.436 344.143 131.618C344.143 131.8 344.186 131.98 344.27 132.147C344.354 132.314 344.477 132.464 344.631 132.587V132.587C344.919 132.792 345.283 132.898 345.654 132.884C346.025 132.87 346.378 132.738 346.644 132.513V132.513Z" fill="#F2EEEB"/>
<path d="M341.105 143.437C341.099 141.289 341.64 139.167 342.69 137.223C342.846 136.926 342.867 136.588 342.751 136.278C342.635 135.967 342.389 135.706 342.062 135.545V135.545C341.88 135.458 341.68 135.404 341.474 135.386C341.267 135.368 341.059 135.387 340.861 135.442C340.664 135.497 340.481 135.586 340.324 135.704C340.167 135.822 340.04 135.967 339.949 136.129C338.496 138.878 337.891 141.909 338.193 144.923C338.496 147.938 339.697 150.831 341.676 153.318C341.796 153.467 341.95 153.593 342.128 153.687C342.307 153.781 342.506 153.842 342.713 153.865C342.919 153.889 343.13 153.874 343.33 153.823C343.53 153.771 343.716 153.684 343.875 153.567V153.567C344.174 153.369 344.371 153.077 344.424 152.754C344.478 152.431 344.383 152.102 344.16 151.839C342.173 149.379 341.106 146.445 341.105 143.437V143.437Z" fill="#F2EEEB"/>
<path d="M331.327 140.964H315.497C314.472 140.964 313.641 141.687 313.641 142.58V143.04C313.641 143.932 314.472 144.655 315.497 144.655H331.327C332.352 144.655 333.183 143.932 333.183 143.04V142.58C333.183 141.687 332.352 140.964 331.327 140.964Z" fill="#563917"/>
<path d="M162.028 145.51L165.202 147.357L163.229 144.84L152.269 129.456L154.437 127.372L173.011 135.433L176.113 136.941L173.67 134.29L162.172 119.933L164.755 117.45L181.26 138.727L178.918 140.98L159.434 132.645L157.507 131.665L158.818 133.237L170.126 149.435L167.784 151.687L141.844 139.481L144.414 137.01L162.028 145.51Z" fill="#003366"/>
<path d="M189.619 120.501C188.352 118.99 187.536 117.426 187.173 115.807C186.82 114.181 186.949 112.672 187.56 111.278C188.182 109.877 189.241 108.701 190.737 107.749C193.049 106.278 195.526 105.817 198.169 106.365C200.821 106.907 203.16 108.384 205.184 110.797L205.34 110.982C206.599 112.483 207.411 114.034 207.777 115.637C208.146 117.224 208.018 118.726 207.394 120.142C206.78 121.553 205.709 122.743 204.182 123.715C201.88 125.179 199.403 125.64 196.75 125.099C194.108 124.55 191.783 123.08 189.774 120.686L189.619 120.501ZM192.801 118.958C194.235 120.667 195.821 121.764 197.558 122.247C199.306 122.723 200.912 122.495 202.377 121.564C203.852 120.625 204.585 119.358 204.577 117.76C204.56 116.154 203.759 114.405 202.173 112.515C200.755 110.824 199.162 109.74 197.396 109.26C195.633 108.765 194.019 108.983 192.554 109.915C191.121 110.826 190.399 112.079 190.389 113.674C190.379 115.268 191.183 117.029 192.801 118.958Z" fill="#003366"/>
<path d="M222.135 94.6178C221.619 94.7695 221.087 94.9765 220.539 95.239C218.504 96.214 217.636 97.6879 217.936 99.6607L225.566 111.736L222.463 113.222L211.713 96.2104L214.732 94.764L216.024 96.7052C216.082 94.6979 217.044 93.247 218.911 92.3524C219.515 92.0631 220.02 91.9168 220.426 91.9136L222.135 94.6178Z" fill="#003366"/>
<path d="M242.374 104.7L239.172 105.958L226.03 80.593L229.233 79.3352L242.374 104.7Z" fill="#003366"/>
<path d="M246.758 92.1681C245.672 89.2781 245.503 86.7564 246.252 84.6029C246.996 82.4378 248.506 81.0308 250.784 80.3819C253.05 79.7364 255.128 79.9795 257.019 81.1112L253.328 71.2922L256.637 70.3494L266.688 97.0905L263.647 97.9569L262.727 95.9832C261.997 97.9388 260.451 99.253 258.09 99.9257C255.848 100.564 253.682 100.192 251.591 98.8092C249.512 97.4227 247.932 95.2903 246.85 92.4119L246.758 92.1681ZM250.205 91.5909C251.007 93.7265 252.089 95.2687 253.449 96.2176C254.808 97.1664 256.287 97.4132 257.885 96.958C259.984 96.36 261.172 95.0065 261.448 92.8975L258.196 84.2449C256.539 82.7511 254.685 82.2964 252.634 82.8808C251.012 83.3429 249.977 84.3123 249.529 85.7892C249.081 87.2661 249.306 89.2 250.205 91.5909Z" fill="#003366"/>
<path d="M293.242 91.8052L289.883 64.9346L298.697 64.0996C301.622 63.8225 303.895 64.2172 305.515 65.2837C307.147 66.3491 308.11 68.0629 308.405 70.4252C308.562 71.6801 308.343 72.8275 307.749 73.8673C307.153 74.8948 306.271 75.7315 305.102 76.3775C306.61 76.6455 307.855 77.3119 308.837 78.3766C309.83 79.4278 310.425 80.7408 310.622 82.3157C310.923 84.7271 310.376 86.6961 308.981 88.2226C307.585 89.7491 305.456 90.648 302.592 90.9193L293.242 91.8052ZM295.226 78.9005L296.435 88.5709L302.304 88.0149C303.958 87.8582 305.207 87.3103 306.052 86.3713C306.907 85.4189 307.241 84.1921 307.053 82.6911C306.649 79.4553 304.681 78.0047 301.151 78.3391L295.226 78.9005ZM294.871 76.0584L300.24 75.5497C301.796 75.4023 302.988 74.8973 303.817 74.0344C304.658 73.1704 304.996 72.0741 304.83 70.7453C304.645 69.2689 304.079 68.2394 303.132 67.6569C302.183 67.0621 300.827 66.8483 299.061 67.0155L293.803 67.5137L294.871 76.0584Z" fill="#003366"/>
<path d="M322.795 79.2081C322.932 77.2414 323.439 75.4928 324.315 73.9623C325.205 72.4325 326.366 71.277 327.8 70.4959C329.246 69.7154 330.854 69.3718 332.625 69.465C335.361 69.609 337.506 70.6716 339.058 72.6528C340.623 74.6346 341.296 77.1964 341.078 80.3382L341.061 80.5794C340.926 82.5337 340.426 84.2703 339.563 85.7891C338.712 87.2961 337.558 88.4457 336.098 89.2379C334.651 90.0308 333.024 90.3796 331.216 90.2845C328.492 90.1411 326.348 89.0785 324.783 87.0967C323.23 85.1155 322.562 82.5664 322.779 79.4493L322.795 79.2081ZM326.222 79.7982C326.067 82.0246 326.457 83.8391 327.391 85.2414C328.337 86.6444 329.677 87.3916 331.411 87.4828C333.157 87.5747 334.591 86.9674 335.713 85.6609C336.836 84.342 337.483 82.4518 337.654 79.9903C337.807 77.7886 337.404 75.9797 336.446 74.5637C335.501 73.1359 334.162 72.3764 332.429 72.2852C330.733 72.1959 329.318 72.798 328.184 74.0915C327.05 75.385 326.396 77.2872 326.222 79.7982Z" fill="#003366"/>
<path d="M355.102 81.1506C355.59 79.2406 356.407 77.5961 357.552 76.217C358.709 74.8402 360.07 73.8684 361.633 73.3017C363.208 72.7373 364.866 72.6239 366.607 72.9616C369.297 73.4834 371.235 74.8238 372.42 76.9828C373.617 79.1441 373.825 81.7503 373.045 84.8014L372.985 85.0356C372.499 86.9335 371.691 88.5672 370.561 89.9367C369.447 91.2965 368.094 92.2634 366.504 92.8375C364.925 93.4139 363.247 93.5297 361.47 93.185C358.792 92.6655 356.855 91.3251 355.658 89.1638C354.472 87.0048 354.267 84.4118 355.042 81.3848L355.102 81.1506ZM358.396 82.2057C357.843 84.3679 357.904 86.2016 358.579 87.7069C359.267 89.2146 360.462 90.1337 362.167 90.4642C363.883 90.7972 365.415 90.401 366.764 89.2756C368.115 88.1382 369.097 86.3744 369.708 83.984C370.255 81.8458 370.181 80.0157 369.484 78.4937C368.803 76.962 367.61 76.0309 365.906 75.7003C364.238 75.3769 362.726 75.7706 361.368 76.8816C360.011 77.9926 359.02 79.7673 358.396 82.2057Z" fill="#003366"/>
<path d="M392.357 90.3576L389.403 91.7324L386.551 98.1987L383.288 97.1075L394.817 70.97L398.08 72.0611L391.107 87.8696L393.746 86.4286L402.363 82.3583L406.331 83.6855L395.513 88.8938L399.074 102.386L395.246 101.107L392.357 90.3576Z" fill="#003366"/>
<path d="M419.519 109.706L436.146 88.3323L442.73 92.2152C444.759 93.4119 446.234 94.8811 447.154 96.6227C448.074 98.3643 448.365 100.242 448.029 102.257C447.703 104.278 446.781 106.275 445.261 108.248L444.199 109.613C442.631 111.629 440.83 113.144 438.795 114.157C436.771 115.176 434.653 115.626 432.441 115.506C430.239 115.393 428.084 114.729 425.975 113.514L419.519 109.706ZM437.417 92.4657L424.388 109.215L427.624 111.124C429.995 112.522 432.362 112.933 434.727 112.357C437.102 111.788 439.26 110.255 441.201 107.76L442.172 106.512C444.06 104.085 444.901 101.832 444.694 99.7548C444.506 97.6736 443.276 95.9493 441.006 94.5819L437.417 92.4657Z" fill="#003366"/>
<path d="M459.505 135.647C459.645 135.252 460.042 134.672 460.696 133.906C458.238 134.009 456.155 133.354 454.444 131.939C452.916 130.675 452.071 129.258 451.909 127.691C451.766 126.122 452.33 124.756 453.601 123.591C455.146 122.175 456.954 121.584 459.027 121.816C461.119 122.048 463.278 123.084 465.504 124.926L468.084 127.059L469.249 125.991C470.136 125.179 470.563 124.304 470.53 123.368C470.506 122.424 469.954 121.506 468.874 120.613C467.928 119.83 466.907 119.384 465.81 119.273C464.712 119.163 463.839 119.405 463.19 120L460.525 117.795C461.265 117.116 462.25 116.688 463.481 116.51C464.729 116.332 466.023 116.445 467.362 116.851C468.71 117.265 469.947 117.938 471.075 118.871C472.861 120.348 473.832 121.9 473.985 123.525C474.148 125.142 473.499 126.653 472.038 128.059L465.21 134.317C463.848 135.565 462.946 136.708 462.505 137.745L462.286 137.947L459.505 135.647ZM457.039 130.236C457.87 130.923 458.864 131.387 460.02 131.626C461.177 131.866 462.252 131.822 463.244 131.495L466.288 128.706L464.21 126.987C460.961 124.3 458.428 123.79 456.609 125.457C455.813 126.186 455.469 126.985 455.575 127.854C455.681 128.723 456.169 129.517 457.039 130.236Z" fill="#003366"/>
<path d="M478.121 145.533L493.624 140.223L496.141 142.911L471.669 150.452C468.083 151.476 465.358 150.992 463.493 149.001L463.094 148.494L462.414 147.417L464.689 145.802L465.264 146.524C466.061 147.375 466.871 147.899 467.696 148.097C468.53 148.304 469.601 148.199 470.91 147.782L473.1 147.154L484.42 130.394L486.988 133.137L478.121 145.533Z" fill="#003366"/>
<path d="M335.161 52.8366C336.329 52.8366 337.245 53.1156 337.907 53.6737C338.57 54.2318 338.901 54.9991 338.901 55.9758C338.901 56.9524 338.57 57.7198 337.907 58.2779C337.245 58.8272 336.329 59.1019 335.161 59.1019H332.702V61.9926H331.734V52.8366H335.161ZM335.134 58.2517C336.041 58.2517 336.735 58.0555 337.214 57.6631C337.694 57.262 337.934 56.6995 337.934 55.9758C337.934 55.2346 337.694 54.6678 337.214 54.2754C336.735 53.8743 336.041 53.6737 335.134 53.6737H332.702V58.2517H335.134ZM344.134 58.8272V61.9926H343.179V58.8272L339.516 52.8366H340.55L343.689 57.977L346.828 52.8366H347.796L344.134 58.8272Z" fill="white"/>
</g>
<defs>
<clipPath id="clip0">
<rect width="638.2" height="197.57" fill="white"/>
</clipPath>
</defs>
</svg>
