<svg width="639" height="198" viewBox="0 0 639 198" fill="none" xmlns="http://www.w3.org/2000/svg">
<g clip-path="url(#clip0)">
<path d="M637.862 0H0.0117798V198H637.862V0Z" fill="#FFD86C"/>
<path d="M151.582 33.5952H11.7632C5.2923 33.5952 0 36.8613 0 40.849C0 44.8368 5.2923 48.0936 11.7632 48.0936H151.582V46.1691H147.676V35.5197H151.582V33.5952Z" fill="#00ADB5"/>
<path d="M148.115 35.5197H17.6448C11.613 35.5197 6.66736 37.9161 6.66736 40.8491C6.66736 43.782 11.613 46.1692 17.6448 46.1692H148.115V35.5197Z" fill="white"/>
<path d="M147.561 41.4967H78.5642V42.4127H147.561V41.4967Z" fill="#DEE0E0"/>
<path d="M119.689 43.4952H73.5607V44.4112H119.689V43.4952Z" fill="#DEE0E0"/>
<path d="M69.1004 43.4952H51.8946V44.4112H69.1004V43.4952Z" fill="#DEE0E0"/>
<path d="M115.645 37.2777H98.4392V38.1937H115.645V37.2777Z" fill="#DEE0E0"/>
<path d="M90.2465 39.415H40.3278V40.331H90.2465V39.415Z" fill="#DEE0E0"/>
<path d="M47.2379 43.4952H33.672V44.4112H47.2379V43.4952Z" fill="#DEE0E0"/>
<path d="M179.545 174.138H41.8647C38.0356 174.138 34.9315 176.624 34.9315 179.69V188.396C34.9315 191.462 38.0356 193.947 41.8647 193.947H179.545C183.375 193.947 186.479 191.462 186.479 188.396V179.69C186.479 176.624 183.375 174.138 179.545 174.138Z" fill="#303841"/>
<path d="M80.1818 174.138H45.8859V193.947H80.1818V174.138Z" fill="#DEE0E0"/>
<path d="M169.573 174.138H144.995V193.947H169.573V174.138Z" fill="#DEE0E0"/>
<path d="M52.6102 175.332H50.0804V192.735H52.6102V175.332Z" fill="#F46A45"/>
<path d="M57.0359 175.332H54.5061V192.735H57.0359V175.332Z" fill="#F46A45"/>
<path d="M61.242 175.332H58.7122V192.735H61.242V175.332Z" fill="#F46A45"/>
<path d="M182.712 13.786H45.0308C41.2017 13.786 38.0977 16.2714 38.0977 19.3374V28.0438C38.0977 31.1098 41.2017 33.5952 45.0308 33.5952H182.712C186.541 33.5952 189.645 31.1098 189.645 28.0438V19.3374C189.645 16.2714 186.541 13.786 182.712 13.786Z" fill="#303841"/>
<path d="M83.348 13.786H49.0521V33.5952H83.348V13.786Z" fill="#F46A45"/>
<path d="M172.739 13.786H148.161V33.5952H172.739V13.786Z" fill="#F46A45"/>
<path d="M55.7764 14.9795H53.2466V32.3832H55.7764V14.9795Z" fill="white"/>
<path d="M60.202 14.9795H57.6722V32.3832H60.202V14.9795Z" fill="white"/>
<path d="M64.4197 14.9795H61.8899V32.3832H64.4197V14.9795Z" fill="white"/>
<path d="M184.364 128.506H46.6832C42.8541 128.506 39.7501 130.991 39.7501 134.057V145.706C39.7501 148.772 42.8541 151.257 46.6832 151.257H184.364C188.193 151.257 191.297 148.772 191.297 145.706V134.057C191.297 130.991 188.193 128.506 184.364 128.506Z" fill="#00ADB5"/>
<path d="M52.6804 128.506H48.7285V151.257H52.6804V128.506Z" fill="white"/>
<path d="M60.1104 128.506H56.1585V151.257H60.1104V128.506Z" fill="white"/>
<path d="M173.872 128.506H169.92V151.257H173.872V128.506Z" fill="white"/>
<path d="M181.302 128.506H177.35V151.257H181.302V128.506Z" fill="white"/>
<path d="M192.118 67.9029H54.4368C50.6077 67.9029 47.5036 70.3883 47.5036 73.4543V74.7034C47.5036 77.7693 50.6077 80.2548 54.4368 80.2548H192.118C195.947 80.2548 199.051 77.7693 199.051 74.7034V73.4543C199.051 70.3883 195.947 67.9029 192.118 67.9029Z" fill="#00ADB5"/>
<path d="M67.864 67.9029H58.458V80.2548H67.864V67.9029Z" fill="#303841"/>
<path d="M186.34 67.9029H176.934V80.2548H186.34V67.9029Z" fill="#303841"/>
<path d="M162.27 72.3255H82.6084V75.8136H162.27V72.3255Z" fill="#303841"/>
<path d="M163.137 128.506H24.474C22.775 128.501 21.1473 127.958 19.946 126.996C18.7446 126.034 18.0669 124.731 18.0609 123.371V123.371C18.0821 122.018 18.7664 120.727 19.9661 119.775C21.1659 118.823 22.7849 118.287 24.474 118.282H163.137C164.836 118.287 166.464 118.829 167.665 119.791C168.866 120.753 169.544 122.057 169.55 123.417V123.417C169.529 124.769 168.845 126.061 167.645 127.013C166.445 127.965 164.826 128.501 163.137 128.506V128.506Z" fill="#303841"/>
<path d="M38.3865 118.236H28.9806V128.506H38.3865V118.236Z" fill="white"/>
<path d="M156.863 118.236H147.457V128.506H156.863V118.236Z" fill="white"/>
<path d="M117.736 125.804H69.8631C69.0589 125.799 68.2895 125.541 67.7208 125.086C67.1522 124.631 66.8301 124.015 66.824 123.371V123.371C66.8301 122.728 67.1526 122.113 67.7216 121.659C68.2905 121.205 69.06 120.949 69.8631 120.947H117.736C118.54 120.947 119.312 121.202 119.881 121.656C120.451 122.11 120.772 122.727 120.775 123.371V123.371C120.772 124.015 120.451 124.633 119.882 125.089C119.313 125.544 118.542 125.802 117.736 125.804V125.804Z" fill="white"/>
<path d="M175.224 151.257H35.4284C28.969 151.257 23.6767 156.392 23.6767 162.675C23.6767 168.957 28.969 174.092 35.4284 174.092H175.247V171.066H171.353V154.283H175.212L175.224 151.257Z" fill="#F46A45"/>
<path d="M171.792 154.283H41.2985C39.8807 154.229 38.4642 154.407 37.1347 154.805C35.8051 155.202 34.5901 155.812 33.5633 156.596C32.5364 157.381 31.719 158.324 31.1605 159.369C30.602 160.414 30.314 161.538 30.314 162.675C30.314 163.811 30.602 164.936 31.1605 165.98C31.719 167.025 32.5364 167.968 33.5633 168.753C34.5901 169.537 35.8051 170.147 37.1347 170.545C38.4642 170.942 39.8807 171.12 41.2985 171.067H171.792V154.283Z" fill="white"/>
<path d="M171.226 156.809H102.229V157.725H171.226V156.809Z" fill="#DEE0E0"/>
<path d="M104.436 162.221H38.1555V163.137H104.436V162.221Z" fill="#DEE0E0"/>
<path d="M157.752 162.221H112.005V163.137H157.752V162.221Z" fill="#DEE0E0"/>
<path d="M134.364 166.709H81.5685V167.625H134.364V166.709Z" fill="#DEE0E0"/>
<path d="M98.1618 156.809H53.4199V157.725H98.1618V156.809Z" fill="#DEE0E0"/>
<path d="M22.3825 118.282H168.048C169.607 118.279 171.101 117.782 172.204 116.9C173.306 116.017 173.927 114.821 173.93 113.572V84.9734C173.927 83.7252 173.306 82.5287 172.204 81.6461C171.101 80.7634 169.607 80.2665 168.048 80.264H22.3825V84.4738H26.3806L26.6464 114.026H22.3825V118.282Z" fill="#F46A45"/>
<path d="M24.8785 114.026H163.541C166.615 114.026 169.146 112.37 169.146 110.325V88.1192C169.146 86.1022 166.615 84.4183 163.541 84.4183H24.8785V114.026Z" fill="white"/>
<path d="M29.5237 94.198H94.6721V93.4856H29.5237V94.198Z" fill="#DEE0E0"/>
<path d="M98.3236 94.198H152.737V93.4856H98.3236V94.198Z" fill="#DEE0E0"/>
<path d="M57.4643 90.4138H111.878V89.7014H57.4643V90.4138Z" fill="#DEE0E0"/>
<path d="M35.4284 102.405H69.8284V101.692H35.4284V102.405Z" fill="#DEE0E0"/>
<path d="M113.819 101.692H146.209V100.98H113.819V101.692Z" fill="#DEE0E0"/>
<path d="M63.8543 105.717L159.902 105.717V105.005L63.8543 105.005V105.717Z" fill="#DEE0E0"/>
<path d="M22.9372 67.9029L160.618 67.9029C164.447 67.9029 167.551 65.4174 167.551 62.3515V53.645C167.551 50.5791 164.447 48.0936 160.618 48.0936L22.9372 48.0936C19.1081 48.0936 16.004 50.5791 16.004 53.645V62.3515C16.004 65.4174 19.1081 67.9029 22.9372 67.9029Z" fill="#F46A45"/>
<path d="M122.289 67.9029H156.585V48.0936H122.289V67.9029Z" fill="#303841"/>
<path d="M32.9093 67.9029H57.4873V48.0936H32.9093V67.9029Z" fill="#303841"/>
<path d="M149.872 66.7186H152.402V49.315H149.872V66.7186Z" fill="#00ADB5"/>
<path d="M145.447 66.7186H147.977V49.315H145.447V66.7186Z" fill="#00ADB5"/>
<path d="M141.229 66.7186H143.759V49.315H141.229V66.7186Z" fill="#00ADB5"/>
<path d="M618.102 53.4322H478.283C471.812 53.4322 466.532 56.6983 466.532 60.6861C466.532 64.6738 471.812 67.9306 478.283 67.9306H618.102V66.0154H614.208V55.3567H618.067L618.102 53.4322Z" fill="#303841"/>
<path d="M614.67 55.366H484.177C478.145 55.366 473.211 57.7624 473.211 60.6953C473.211 63.6283 478.145 66.0247 484.177 66.0247H614.67V55.366Z" fill="white"/>
<path d="M614.104 61.3337H545.107V62.2497H614.104V61.3337Z" fill="#DEE0E0"/>
<path d="M586.233 63.3322H540.104V64.2482H586.233V63.3322Z" fill="#DEE0E0"/>
<path d="M535.632 63.3322H518.426V64.2482H535.632V63.3322Z" fill="#DEE0E0"/>
<path d="M582.177 57.1147H564.971V58.0307H582.177V57.1147Z" fill="#DEE0E0"/>
<path d="M556.778 59.2612H506.86V60.1772H556.778V59.2612Z" fill="#DEE0E0"/>
<path d="M513.77 63.3322H500.204V64.2482H513.77V63.3322Z" fill="#DEE0E0"/>
<path d="M468.577 100.971H608.395C614.855 100.971 620.147 106.115 620.147 112.388C620.147 118.661 614.832 123.833 608.372 123.833H468.554V120.78H472.448V103.996H468.589L468.577 100.971Z" fill="#00ADB5"/>
<path d="M472.009 103.996H602.502C603.92 103.943 605.337 104.12 606.666 104.518C607.996 104.916 609.211 105.525 610.238 106.31C611.264 107.094 612.082 108.038 612.64 109.082C613.199 110.127 613.487 111.252 613.487 112.388C613.487 113.525 613.199 114.649 612.64 115.694C612.082 116.739 611.264 117.682 610.238 118.466C609.211 119.251 607.996 119.86 606.666 120.258C605.337 120.656 603.92 120.833 602.502 120.78H472.009V103.996Z" fill="white"/>
<path d="M472.563 107.438H541.56V106.522H472.563V107.438Z" fill="#DEE0E0"/>
<path d="M539.364 112.851H605.645V111.935H539.364V112.851Z" fill="#DEE0E0"/>
<path d="M486.049 112.851H531.796V111.935H486.049V112.851Z" fill="#DEE0E0"/>
<path d="M509.425 117.338H562.221V116.422H509.425V117.338Z" fill="#DEE0E0"/>
<path d="M545.639 107.438H590.381V106.522H545.639V107.438Z" fill="#DEE0E0"/>
<path d="M609.967 155.976H464.371C462.811 155.978 461.315 156.475 460.211 157.357C459.107 158.24 458.484 159.436 458.478 160.685V189.238C458.484 190.487 459.107 191.684 460.211 192.566C461.315 193.448 462.811 193.945 464.371 193.947H609.967V189.738H605.98L605.703 160.186H609.967V155.976Z" fill="#303841"/>
<path d="M607.471 160.186H468.808C465.723 160.186 463.204 161.842 463.204 163.887V186.092C463.204 188.109 465.723 189.793 468.808 189.793H607.471V160.186Z" fill="white"/>
<path d="M607.471 163.137H542.323V163.85H607.471V163.137Z" fill="#DEE0E0"/>
<path d="M583.806 178.061H529.392V178.774H583.806V178.061Z" fill="#DEE0E0"/>
<path d="M574.897 183.807H520.483V184.519H574.897V183.807Z" fill="#DEE0E0"/>
<path d="M535.99 172.167H501.59V172.88H535.99V172.167Z" fill="#DEE0E0"/>
<path d="M518.796 178.061H486.407V178.774H518.796V178.061Z" fill="#DEE0E0"/>
<path d="M607.471 166.283H511.424V166.995H607.471V166.283Z" fill="#DEE0E0"/>
<path d="M460.916 0H606.581C608.14 0.0024452 609.634 0.499402 610.737 1.38206C611.839 2.26473 612.46 3.46117 612.463 4.70944V33.2622C612.46 34.5104 611.839 35.7069 610.737 36.5895C609.634 37.4722 608.14 37.9691 606.581 37.9716H460.916V33.7618H464.914L465.18 4.20981H460.916V0Z" fill="#00ADB5"/>
<path d="M463.412 4.20979H602.075C605.16 4.20979 607.679 5.85671 607.679 7.91073V30.1163C607.679 32.1333 605.16 33.8173 602.075 33.8173H463.412V4.20979Z" fill="white"/>
<path d="M463.423 7.87375L528.572 7.87375V7.16132L463.423 7.16132V7.87375Z" fill="#DEE0E0"/>
<path d="M487.077 22.7978L541.491 22.7978V22.0853L487.077 22.0853V22.7978Z" fill="#DEE0E0"/>
<path d="M495.986 28.5435L550.4 28.5435V27.8311L495.986 27.8311V28.5435Z" fill="#DEE0E0"/>
<path d="M534.893 16.904L569.292 16.904V16.1916L534.893 16.1916V16.904Z" fill="#DEE0E0"/>
<path d="M552.087 22.7978L584.476 22.7978V22.0853L552.087 22.0853V22.7978Z" fill="#DEE0E0"/>
<path d="M463.423 11.0195L559.471 11.0195V10.3071L463.423 10.3071V11.0195Z" fill="#DEE0E0"/>
<path d="M602.225 123.815H464.544C460.715 123.815 457.611 126.3 457.611 129.366V130.615C457.611 133.681 460.715 136.167 464.544 136.167H602.225C606.054 136.167 609.158 133.681 609.158 130.615V129.366C609.158 126.3 606.054 123.815 602.225 123.815Z" fill="#303841"/>
<path d="M477.983 123.815H468.577V136.167H477.983V123.815Z" fill="#F46A45"/>
<path d="M596.447 123.815H587.041V136.167H596.447V123.815Z" fill="#F46A45"/>
<path d="M572.378 128.228H492.716V131.716H572.378V128.228Z" fill="#F46A45"/>
<path d="M625.439 136.167H487.759C483.93 136.167 480.826 138.652 480.826 141.718V150.424C480.826 153.49 483.93 155.976 487.759 155.976H625.439C629.268 155.976 632.373 153.49 632.373 150.424V141.718C632.373 138.652 629.268 136.167 625.439 136.167Z" fill="#00ADB5"/>
<path d="M526.076 136.167H491.78V155.976H526.076V136.167Z" fill="#F46A45"/>
<path d="M615.467 136.167H590.889V155.976H615.467V136.167Z" fill="#F46A45"/>
<path d="M498.504 137.36H495.974V154.764H498.504V137.36Z" fill="white"/>
<path d="M502.93 137.36H500.4V154.764H502.93V137.36Z" fill="white"/>
<path d="M507.136 137.36H504.606V154.764H507.136V137.36Z" fill="white"/>
<path d="M605.195 78.21H466.532C464.829 78.2076 463.196 77.6648 461.992 76.7006C460.788 75.7364 460.11 74.4293 460.107 73.0657V73.0657C460.113 71.7053 460.791 70.402 461.992 69.4401C463.193 68.4781 464.821 67.9355 466.52 67.9307H605.195C606.894 67.9355 608.521 68.4781 609.723 69.4401C610.924 70.402 611.602 71.7053 611.608 73.0657V73.0657C611.605 74.4277 610.929 75.7334 609.727 76.6973C608.525 77.6613 606.896 78.2051 605.195 78.21V78.21Z" fill="#00ADB5"/>
<path d="M480.421 67.9307H471.015V78.2008H480.421V67.9307Z" fill="white"/>
<path d="M598.886 67.9307H589.48V78.2008H598.886V67.9307Z" fill="white"/>
<path d="M559.771 75.499H511.898C511.092 75.499 510.319 75.2427 509.749 74.7863C509.179 74.33 508.859 73.7111 508.859 73.0657V73.0657C508.862 72.4219 509.183 71.8054 509.753 71.351C510.322 70.8967 511.094 70.6416 511.898 70.6416H559.771C560.574 70.644 561.344 70.8999 561.913 71.3537C562.481 71.8075 562.804 72.4227 562.81 73.0657C562.807 73.7103 562.486 74.3278 561.917 74.7836C561.347 75.2395 560.576 75.4966 559.771 75.499V75.499Z" fill="white"/>
<path d="M631.067 78.21H493.386C489.557 78.21 486.453 80.6955 486.453 83.7614V95.4101C486.453 98.4761 489.557 100.962 493.386 100.962H631.067C634.896 100.962 638 98.4761 638 95.4101V83.7614C638 80.6955 634.896 78.21 631.067 78.21Z" fill="#F46A45"/>
<path d="M499.383 78.21H495.431V100.962H499.383V78.21Z" fill="#303841"/>
<path d="M506.813 78.21H502.861V100.962H506.813V78.21Z" fill="#303841"/>
<path d="M620.575 78.21H616.623V100.962H620.575V78.21Z" fill="#303841"/>
<path d="M628.005 78.21H624.053V100.962H628.005V78.21Z" fill="#303841"/>
<path d="M631.067 38.2214H493.386C489.557 38.2214 486.453 40.7069 486.453 43.7728V47.9734C486.453 51.0393 489.557 53.5248 493.386 53.5248H631.067C634.896 53.5248 638 51.0393 638 47.9734V43.7728C638 40.7069 634.896 38.2214 631.067 38.2214Z" fill="#F46A45"/>
<path d="M506.813 38.2214H497.407V53.5248H506.813V38.2214Z" fill="#303841"/>
<path d="M625.278 38.2214H615.872V53.5248H625.278V38.2214Z" fill="#303841"/>
<path d="M601.22 43.6895H521.558V48.0104H601.22V43.6895Z" fill="#303841"/>
<path d="M227.072 3.39563C225.535 21.1324 240.939 43.8468 223.224 66.0525C205.51 88.2581 184.711 101.776 193.181 120.641C201.651 139.507 240.176 166.801 224.761 197.547H432.756C432.756 197.547 444.311 166.709 433.53 149.083C422.749 131.457 462.037 115.349 454.329 81.6519C446.622 47.9549 414.267 29.0431 434.304 13.6287L227.072 3.39563Z" fill="#303841"/>
<path d="M275.084 60.5843V69.2444H287.518V60.5843H290.869V81.1707H287.518V71.5205H275.084V81.1707H271.756V60.5843H275.084Z" fill="white"/>
<path d="M306.734 81.1707L306.468 79.3203H306.353C305.694 80.0177 304.839 80.5807 303.857 80.9633C302.875 81.346 301.794 81.5375 300.702 81.5223C299.977 81.5646 299.248 81.4858 298.562 81.2909C297.876 81.096 297.248 80.7893 296.718 80.3901C296.188 79.9909 295.768 79.508 295.483 78.9719C295.198 78.4357 295.055 77.8581 295.063 77.2755C295.063 73.7041 299.027 71.7241 306.156 71.7796V71.4743C306.156 70.253 305.74 68.0509 301.962 68.0509C300.274 68.0552 298.619 68.4296 297.178 69.1334L296.392 67.394C298.222 66.5116 300.323 66.0565 302.459 66.0802C308.098 66.0802 309.473 69.1612 309.473 72.1219V77.6733C309.449 78.8595 309.554 80.0451 309.785 81.217L306.734 81.1707ZM306.237 73.6208C302.574 73.5653 298.414 74.0834 298.414 76.9517C298.38 77.2928 298.438 77.6359 298.585 77.9574C298.731 78.2789 298.963 78.5713 299.263 78.8147C299.564 79.058 299.926 79.2465 300.326 79.3673C300.726 79.4881 301.154 79.5383 301.58 79.5146C302.554 79.5316 303.51 79.3019 304.311 78.8582C305.112 78.4146 305.717 77.7797 306.041 77.0442C306.161 76.7704 306.228 76.4832 306.237 76.193V73.6208Z" fill="white"/>
<path d="M314.892 71.2152C314.892 69.3185 314.811 67.7919 314.73 66.3855H317.746L317.897 68.9207H317.977C318.643 68.0106 319.606 67.2629 320.762 66.7576C321.918 66.2523 323.225 66.0085 324.541 66.0524C329.001 66.0524 332.352 69.0779 332.352 73.5653C332.352 78.8762 328.308 81.5038 323.963 81.5038C322.846 81.5432 321.734 81.3499 320.738 80.9429C319.742 80.5359 318.894 79.929 318.278 79.1815H318.209V87.2125H314.892V71.2152ZM318.209 75.1475C318.214 75.5175 318.264 75.8863 318.359 76.2485C318.638 77.1486 319.286 77.9476 320.199 78.5179C321.113 79.0882 322.239 79.3968 323.397 79.3943C326.944 79.3943 329.001 77.072 329.001 73.6856C329.001 70.7249 327.06 68.1897 323.512 68.1897C322.106 68.2814 320.791 68.7817 319.814 69.5964C318.837 70.4111 318.266 71.4838 318.209 72.6123V75.1475Z" fill="white"/>
<path d="M336.581 71.2152C336.581 69.3185 336.512 67.7918 336.431 66.3855H339.447L339.597 68.9206H339.678C340.342 68.0113 341.303 67.2639 342.457 66.7586C343.611 66.2533 344.916 66.0092 346.23 66.0524C350.702 66.0524 354.053 69.0779 354.053 73.5653C354.053 78.8761 350.009 81.5038 345.664 81.5038C344.539 81.5497 343.418 81.3596 342.413 80.9523C341.408 80.545 340.553 79.9346 339.932 79.1815V79.1815V87.2125H336.581V71.2152ZM339.932 75.1475C339.938 75.5175 339.988 75.8862 340.083 76.2485C340.359 77.1478 341.005 77.9466 341.917 78.517C342.828 79.0874 343.952 79.3963 345.109 79.3943C348.657 79.3943 350.725 77.0719 350.725 73.6856C350.725 70.7248 348.772 68.1897 345.225 68.1897C343.821 68.2835 342.508 68.7848 341.533 69.5993C340.559 70.4137 339.989 71.4853 339.932 72.6123V75.1475Z" fill="white"/>
<path d="M359.241 66.3855L363.274 75.1197C363.702 76.1005 364.152 77.257 364.43 78.1452H364.499C364.846 77.22 365.227 76.1282 365.654 75.0549L369.317 66.3855H372.853L367.896 76.9239C365.493 81.9942 363.852 84.5848 361.564 86.1763C360.401 87.0329 358.979 87.6324 357.439 87.9157L356.607 85.6581C357.691 85.3736 358.698 84.9279 359.576 84.3443C360.794 83.5335 361.759 82.5072 362.396 81.3465C362.532 81.1485 362.622 80.9321 362.662 80.7081C362.633 80.4662 362.559 80.2291 362.442 80.0049L355.613 66.3855H359.241Z" fill="white"/>
<path d="M236.259 117.81L229.741 97.2235H233.208L236.259 107.642C237.021 110.205 237.703 112.767 238.165 114.757H238.246C238.662 112.703 239.471 110.26 240.349 107.605L243.816 97.2235H247.282L250.414 107.669C251.13 110.112 251.824 112.555 252.205 114.72H252.274C252.817 112.462 253.534 110.177 254.343 107.605L257.728 97.2235H261.126L253.846 117.81H250.379L247.144 107.087C246.429 104.874 245.87 102.632 245.468 100.369H245.387C244.876 102.635 244.212 104.878 243.4 107.087L239.748 117.81H236.259Z" fill="white"/>
<path d="M279.66 110.297C279.66 115.756 274.934 118.143 270.416 118.143C265.424 118.143 261.576 115.21 261.576 110.538C261.576 105.588 265.621 102.692 270.728 102.692C276.078 102.692 279.66 105.773 279.66 110.297ZM265.008 110.445C265.008 113.683 267.319 116.126 270.624 116.126C273.929 116.126 276.228 113.711 276.228 110.39C276.228 107.882 274.657 104.709 270.693 104.709C266.73 104.709 265.008 107.642 265.008 110.445Z" fill="white"/>
<path d="M283.889 107.642C283.889 105.893 283.889 104.403 283.739 103.016H286.674L286.79 105.921H286.94C287.254 105.018 287.918 104.218 288.836 103.636C289.753 103.054 290.878 102.72 292.047 102.682C292.371 102.677 292.694 102.708 293.006 102.775V105.329C292.627 105.261 292.239 105.23 291.851 105.236C289.482 105.236 287.807 106.67 287.344 108.687C287.254 109.1 287.204 109.517 287.194 109.936V117.819H283.889V107.642Z" fill="white"/>
<path d="M296.508 96.1226H299.87V117.81H296.508V96.1226Z" fill="white"/>
<path d="M321.444 96.1226V113.989C321.444 115.303 321.444 116.765 321.594 117.81H318.578L318.428 115.238H318.347C317.747 116.147 316.839 116.902 315.727 117.416C314.615 117.93 313.344 118.182 312.061 118.143C307.589 118.143 304.157 115.118 304.157 110.63C304.157 105.717 307.936 102.692 312.442 102.692C313.532 102.643 314.618 102.826 315.591 103.222C316.563 103.619 317.387 104.215 317.977 104.949H318.047V96.1226H321.444ZM318.093 109.03C318.1 108.65 318.049 108.271 317.943 107.901C317.704 107.016 317.092 106.225 316.211 105.658C315.329 105.092 314.231 104.786 313.101 104.792C309.635 104.792 307.566 107.235 307.566 110.501C307.566 113.489 309.403 115.969 313.02 115.969C314.186 115.97 315.317 115.649 316.221 115.058C317.125 114.468 317.745 113.646 317.977 112.731C318.088 112.352 318.138 111.963 318.128 111.574L318.093 109.03Z" fill="white"/>
<path d="M335.218 97.5011C337.214 97.2033 339.242 97.0608 341.273 97.0755C344.601 97.0755 346.727 97.5289 348.333 98.5651C349.03 98.9877 349.588 99.5393 349.961 100.173C350.333 100.806 350.508 101.502 350.471 102.201C350.429 103.225 349.987 104.211 349.207 105.023C348.428 105.835 347.35 106.43 346.126 106.726V106.781C347.614 107.025 348.952 107.671 349.915 108.611C350.879 109.551 351.409 110.728 351.418 111.944C351.432 112.713 351.246 113.477 350.872 114.185C350.499 114.894 349.945 115.533 349.246 116.061C347.455 117.375 344.554 117.995 340.36 117.995C338.641 118.003 336.923 117.92 335.218 117.745V97.5011ZM338.534 105.93H341.55C345.017 105.93 347.108 104.459 347.108 102.479C347.108 100.064 344.797 99.1203 341.469 99.1203C340.485 99.0996 339.502 99.1616 338.534 99.3053V105.93ZM338.534 115.793C339.457 115.892 340.388 115.932 341.319 115.913C344.786 115.913 347.917 114.905 347.917 111.916C347.917 109.141 344.901 107.947 341.273 107.947H338.534V115.793Z" fill="white"/>
<path d="M372.622 110.297C372.622 115.756 367.896 118.143 363.378 118.143C358.375 118.143 354.527 115.21 354.527 110.538C354.527 105.588 358.571 102.692 363.678 102.692C369.04 102.692 372.622 105.773 372.622 110.297ZM357.982 110.445C357.982 113.683 360.293 116.126 363.586 116.126C366.879 116.126 369.19 113.711 369.19 110.39C369.19 107.882 367.63 104.709 363.667 104.709C359.703 104.709 357.982 107.642 357.982 110.445Z" fill="white"/>
<path d="M393.56 110.297C393.56 115.756 388.834 118.143 384.316 118.143C379.324 118.143 375.476 115.21 375.476 110.538C375.476 105.588 379.509 102.692 384.628 102.692C389.978 102.692 393.56 105.773 393.56 110.297ZM378.908 110.445C378.908 113.683 381.219 116.126 384.524 116.126C387.829 116.126 390.128 113.711 390.128 110.39C390.128 107.882 388.557 104.709 384.593 104.709C380.63 104.709 378.908 107.642 378.908 110.445Z" fill="white"/>
<path d="M401.106 109.807H401.175C401.626 109.289 402.273 108.65 402.816 108.123L408.224 103.025H412.268L405.139 109.104L413.227 117.81H409.148L402.781 110.723L401.06 112.249V117.801H397.743V96.1226H401.06L401.106 109.807Z" fill="white"/>
<path d="M293.214 134.14C295.547 133.856 297.904 133.714 300.263 133.715C305.035 133.715 308.433 134.594 310.663 136.278C312.893 137.962 314.291 140.339 314.291 143.679C314.381 145.143 314.099 146.605 313.464 147.979C312.828 149.353 311.852 150.61 310.594 151.674C308.19 153.598 304.227 154.634 299.223 154.634C297.212 154.647 295.202 154.566 293.203 154.394L293.214 134.14ZM296.531 152.34C297.641 152.46 298.762 152.509 299.882 152.488C306.977 152.488 310.825 149.314 310.825 143.754C310.825 138.905 307.439 135.815 300.425 135.815C299.122 135.802 297.821 135.895 296.542 136.093L296.531 152.34Z" fill="white"/>
<path d="M328.712 154.449L328.446 152.599H328.377C327.723 153.298 326.871 153.863 325.89 154.246C324.91 154.629 323.829 154.819 322.738 154.801C322.011 154.844 321.281 154.767 320.594 154.572C319.907 154.378 319.278 154.072 318.747 153.672C318.215 153.273 317.793 152.79 317.508 152.253C317.222 151.716 317.079 151.137 317.088 150.554C317.088 146.983 321.051 145.003 328.192 145.058V144.753C328.192 143.531 327.765 141.329 323.998 141.329C322.299 141.336 320.636 141.717 319.191 142.43L318.428 140.663C320.254 139.781 322.351 139.326 324.483 139.349C330.133 139.349 331.509 142.43 331.509 145.391V150.943C331.482 152.129 331.582 153.314 331.809 154.486L328.712 154.449ZM328.215 146.899C324.552 146.844 320.404 147.362 320.404 150.23C320.368 150.571 320.424 150.914 320.569 151.235C320.715 151.557 320.945 151.849 321.245 152.093C321.544 152.336 321.906 152.525 322.306 152.646C322.705 152.767 323.133 152.817 323.559 152.793C324.534 152.812 325.492 152.583 326.296 152.14C327.099 151.696 327.706 151.06 328.03 150.323C328.147 150.048 328.21 149.761 328.215 149.471V146.899Z" fill="white"/>
<path d="M337.783 139.664L341.827 148.398C342.255 149.379 342.706 150.536 342.983 151.424H343.052C343.399 150.499 343.78 149.407 344.208 148.343L347.871 139.664H351.488L346.461 150.202C344.058 155.273 342.417 157.863 340.129 159.455C338.966 160.311 337.544 160.911 336.004 161.194L335.172 158.937C336.246 158.653 337.242 158.207 338.107 157.623C339.324 156.812 340.289 155.786 340.926 154.625C341.063 154.427 341.153 154.211 341.192 153.987C341.165 153.743 341.087 153.506 340.961 153.283L334.155 139.664H337.783Z" fill="white"/>
</g>
<defs>
<clipPath id="clip0">
<rect width="638.2" height="197.57" fill="white"/>
</clipPath>
</defs>
</svg>
