<svg width="639" height="198" viewBox="0 0 639 198" fill="none" xmlns="http://www.w3.org/2000/svg">
<g clip-path="url(#clip0)">
<path d="M638.18 0H0.179993V195H638.18V0Z" fill="#86CFD6"/>
<path d="M47.18 82.5L35.02 72.25L23.18 82.5V0H46.47L47.18 82.5Z" fill="#5BC1D4"/>
<path d="M140.18 165.5L128.02 155.25L116.18 165.5V0H140.18V165.5Z" fill="#5BC1D4"/>
<path d="M91.18 177.5L79.02 167.25L67.18 177.5V0H91.18V177.5Z" fill="#5BC1D4"/>
<path d="M188.18 43.5L176.02 33.25L164.18 43.5C163.9 29.02 163.617 14.5433 163.33 0.07L188.18 0V43.5Z" fill="#5BC1D4"/>
<path d="M591.18 82.5L603.34 72.25L615.18 82.5V0H591.18V82.5Z" fill="#5BC1D4"/>
<path d="M498.18 165.5L510.34 155.25L522.18 165.5V0H498.18V165.5Z" fill="#5BC1D4"/>
<path d="M547.18 177.5L559.34 167.25L571.18 177.5V0H547.18V177.5Z" fill="#5BC1D4"/>
<path d="M450.18 43.5L462.34 33.25L474.18 43.5V0H450.18V43.5Z" fill="#5BC1D4"/>
<path d="M188.18 195V160.5L176.02 170.75L164.18 160.5V195H188.18Z" fill="#5BC1D4"/>
<path d="M450.18 195V160.5L462.34 170.75L474.18 160.5V195" fill="#5BC1D4"/>
<path opacity="0.71" d="M638.18 0H0.179993V195H638.18V0Z" fill="url(#paint0_radial)"/>
<path d="M45.25 149.08L48.66 143.08C50.565 144.164 52.8221 144.449 54.9366 143.871C57.0511 143.294 58.8504 141.902 59.94 140L63.01 134.61L48.65 126.42L38.07 145L45.25 149.08Z" fill="#FFCFAD"/>
<path d="M104.39 165.88L38.79 128.46L97.18 26.06L162.79 63.49C164.159 64.2706 165.361 65.3133 166.327 66.5585C167.293 67.8036 168.005 69.2269 168.421 70.7471C168.837 72.2672 168.949 73.8544 168.752 75.418C168.554 76.9816 168.051 78.491 167.27 79.86L120.79 161.34C120.009 162.709 118.967 163.911 117.722 164.877C116.476 165.843 115.053 166.555 113.533 166.971C112.013 167.387 110.426 167.499 108.862 167.302C107.298 167.104 105.789 166.601 104.42 165.82L104.39 165.88Z" fill="#FF8523"/>
<path d="M97.1895 26.0658L38.7947 128.443L48.6711 134.076L107.066 31.6991L97.1895 26.0658Z" fill="#E0611D"/>
<path d="M18.93 134.07L36.3 103.61C37.6364 101.26 39.7622 99.4606 42.3 98.53L57.66 92.92C58.7847 92.5069 59.9857 92.3431 61.18 92.44L76.88 93.73C77.6105 93.7868 78.3226 93.9872 78.9755 94.3197C79.6284 94.6522 80.2094 95.1103 80.685 95.6676C81.1606 96.225 81.5216 96.8707 81.7472 97.5678C81.9729 98.2649 82.0588 98.9997 82 99.73C81.9796 99.9927 81.9395 100.253 81.88 100.51V100.51C81.5695 101.914 80.7274 103.142 79.5304 103.939C78.3334 104.735 76.8745 105.036 75.46 104.78L62.96 102.09L48.69 110.65C50.1938 111.459 51.5236 112.556 52.6033 113.879C53.683 115.201 54.4916 116.724 54.9829 118.359C55.4741 119.995 55.6384 121.711 55.4663 123.409C55.2942 125.108 54.7892 126.756 53.98 128.26C53.98 128.34 53.9 128.42 53.85 128.5L42.85 147.73L18.93 134.07Z" fill="#FFCFAD"/>
<path d="M17.3855 132.284L12.9511 140.058L43.1274 157.27L47.5617 149.496L17.3855 132.284Z" fill="white"/>
<path d="M12.27 137.3L45.81 156.42L23.8 195L19.41 195.05C19.41 195.05 13.82 195.1 0.18 195C0.18 195 0.18 185.67 0.18 166.92C0.18 163.92 0.08 161.4 0 159.82L12.27 137.3Z" fill="#FFD01F"/>
<path d="M92.96 86.99L130.35 108.32" stroke="white" stroke-width="2.07" stroke-miterlimit="10" stroke-linecap="round"/>
<path d="M89.07 93.79L126.47 115.12" stroke="white" stroke-width="2.07" stroke-miterlimit="10" stroke-linecap="round"/>
<path d="M95.16 143.46L80.62 135.16" stroke="white" stroke-width="2.07" stroke-miterlimit="10" stroke-linecap="round"/>
<path d="M141.83 65.8L127.29 57.51" stroke="white" stroke-width="2.07" stroke-miterlimit="10" stroke-linecap="round"/>
<path d="M593.11 149.08L589.7 143.08C587.795 144.164 585.538 144.449 583.423 143.871C581.309 143.294 579.51 141.902 578.42 140L575.35 134.61L589.71 126.42L600.29 145L593.11 149.08Z" fill="#FFCFAD"/>
<path d="M475.55 63.45L541.18 26L599.58 128.4L533.93 165.84C532.561 166.621 531.052 167.124 529.488 167.322C527.924 167.519 526.337 167.407 524.817 166.991C523.297 166.575 521.874 165.863 520.628 164.897C519.383 163.931 518.341 162.729 517.56 161.36L471.11 79.88C469.532 77.1164 469.117 73.8392 469.955 70.7693C470.793 67.6994 472.817 65.0882 475.58 63.51L475.55 63.45Z" fill="#E0611D"/>
<path d="M541.172 26.0433L531.296 31.6767L589.69 134.054L599.567 128.42L541.172 26.0433Z" fill="#A84916"/>
<path d="M619.43 134.07L602.06 103.61C600.724 101.26 598.598 99.4606 596.06 98.53L580.7 92.92C579.579 92.5068 578.381 92.343 577.19 92.44L561.49 93.73C560.759 93.7868 560.047 93.9872 559.394 94.3197C558.742 94.6522 558.161 95.1103 557.685 95.6676C557.209 96.225 556.848 96.8707 556.623 97.5678C556.397 98.2649 556.311 98.9997 556.37 99.73C556.39 99.9926 556.431 100.253 556.49 100.51V100.51C556.8 101.914 557.643 103.142 558.84 103.939C560.037 104.735 561.495 105.036 562.91 104.78L575.41 102.09L589.68 110.65C588.176 111.459 586.846 112.556 585.767 113.879C584.687 115.201 583.878 116.724 583.387 118.359C582.896 119.994 582.732 121.711 582.904 123.409C583.076 125.108 583.581 126.756 584.39 128.26C584.39 128.34 584.47 128.42 584.52 128.5L595.52 147.73L619.43 134.07Z" fill="#FFCFAD"/>
<path d="M620.992 132.248L590.816 149.46L595.25 157.234L625.426 140.022L620.992 132.248Z" fill="white"/>
<path d="M638.18 158.52C638.18 159.79 638.18 194.99 638.18 195C637.93 195.05 616.73 195 614.54 195L592.54 156.46L626.08 137.33L638.18 158.52Z" fill="#FFB713"/>
<path d="M545.4 86.99L508.01 108.32" stroke="white" stroke-width="2.07" stroke-miterlimit="10" stroke-linecap="round"/>
<path d="M549.28 93.79L511.89 115.12" stroke="white" stroke-width="2.07" stroke-miterlimit="10" stroke-linecap="round"/>
<path d="M543.19 143.46L557.73 135.16" stroke="white" stroke-width="2.07" stroke-miterlimit="10" stroke-linecap="round"/>
<path d="M496.53 65.8L511.07 57.51" stroke="white" stroke-width="2.07" stroke-miterlimit="10" stroke-linecap="round"/>
<path d="M450.54 73H187.81L211.25 105.93L187.81 138H450.54L427.11 105.93L450.54 73Z" fill="white"/>
<path d="M255.702 62.52L248.484 35.3188H252.176L256.314 53.1499C256.759 55.0177 257.143 56.8732 257.464 58.7163C258.157 55.8094 258.565 54.1333 258.689 53.688L263.866 35.3188H268.208L272.104 49.0864C273.081 52.5005 273.786 55.7104 274.219 58.7163C274.566 56.9969 275.017 55.0239 275.574 52.7973L279.841 35.3188H283.459L276 62.52H272.531L266.797 41.7944C266.315 40.0626 266.03 38.9988 265.944 38.603C265.659 39.8524 265.393 40.9162 265.146 41.7944L259.375 62.52H255.702ZM285.742 49.272C285.742 44.757 286.954 41.2254 289.378 38.6772C291.803 36.1167 294.932 34.8364 298.767 34.8364C301.278 34.8364 303.542 35.4363 305.558 36.6362C307.574 37.8361 309.108 39.5122 310.16 41.6645C311.223 43.8045 311.755 46.2352 311.755 48.9565C311.755 51.715 311.199 54.1828 310.085 56.3598C308.972 58.5369 307.395 60.1883 305.354 61.3139C303.313 62.4272 301.111 62.9839 298.749 62.9839C296.188 62.9839 293.9 62.3654 291.883 61.1284C289.867 59.8914 288.339 58.2029 287.3 56.063C286.261 53.923 285.742 51.6593 285.742 49.272ZM289.453 49.3276C289.453 52.6056 290.331 55.1909 292.087 57.0835C293.856 58.9637 296.07 59.9038 298.73 59.9038C301.439 59.9038 303.666 58.9513 305.41 57.0464C307.166 55.1414 308.044 52.4386 308.044 48.938C308.044 46.7238 307.667 44.7941 306.913 43.1489C306.17 41.4914 305.076 40.2111 303.628 39.3081C302.194 38.3927 300.579 37.935 298.786 37.935C296.237 37.935 294.042 38.8133 292.199 40.5698C290.368 42.3139 289.453 45.2332 289.453 49.3276ZM316.468 62.52V35.3188H328.529C330.953 35.3188 332.796 35.5662 334.058 36.061C335.32 36.5434 336.328 37.4031 337.083 38.6401C337.837 39.8771 338.214 41.244 338.214 42.7407C338.214 44.6704 337.59 46.297 336.34 47.6206C335.091 48.9442 333.161 49.7853 330.551 50.144C331.504 50.6017 332.227 51.0532 332.722 51.4985C333.774 52.4634 334.769 53.6694 335.709 55.1167L340.441 62.52H335.914L332.314 56.8608C331.263 55.228 330.397 53.9787 329.716 53.1128C329.036 52.2469 328.424 51.6408 327.879 51.2944C327.347 50.9481 326.803 50.7069 326.247 50.5708C325.838 50.4842 325.17 50.4409 324.243 50.4409H320.068V62.52H316.468ZM320.068 47.3237H327.805C329.45 47.3237 330.737 47.1567 331.665 46.8227C332.592 46.4764 333.297 45.9321 333.78 45.1899C334.262 44.4354 334.503 43.619 334.503 42.7407C334.503 41.4542 334.033 40.3966 333.093 39.5679C332.166 38.7391 330.694 38.3247 328.677 38.3247H320.068V47.3237ZM343.725 62.52V35.3188H347.325V59.31H360.721V62.52H343.725ZM365.026 62.52V35.3188H374.396C376.511 35.3188 378.125 35.4487 379.239 35.7085C380.797 36.0672 382.127 36.7166 383.228 37.6567C384.663 38.869 385.733 40.4214 386.438 42.3139C387.155 44.1942 387.514 46.3465 387.514 48.771C387.514 50.8367 387.273 52.6675 386.791 54.2632C386.308 55.8589 385.69 57.1824 384.935 58.2339C384.18 59.2729 383.352 60.0955 382.449 60.7016C381.558 61.2954 380.476 61.7469 379.202 62.0561C377.94 62.3654 376.486 62.52 374.841 62.52H365.026ZM368.625 59.31H374.433C376.227 59.31 377.631 59.1431 378.645 58.8091C379.672 58.4751 380.488 58.005 381.094 57.3989C381.948 56.5454 382.61 55.4012 383.08 53.9663C383.562 52.519 383.803 50.7687 383.803 48.7153C383.803 45.8703 383.333 43.687 382.393 42.1655C381.465 40.6317 380.333 39.605 378.998 39.0854C378.033 38.7143 376.48 38.5288 374.34 38.5288H368.625V59.31Z" fill="white"/>
<path d="M187.216 77.2376H206.304C210.082 77.2376 212.895 77.4005 214.74 77.7262C216.608 78.0302 218.269 78.6817 219.724 79.6806C221.201 80.6795 222.428 82.015 223.405 83.6871C224.382 85.3375 224.871 87.1942 224.871 89.2572C224.871 91.4939 224.263 93.546 223.047 95.4135C221.852 97.281 220.224 98.6817 218.161 99.6155C221.07 100.462 223.307 101.906 224.871 103.948C226.434 105.989 227.216 108.389 227.216 111.146C227.216 113.318 226.706 115.435 225.685 117.498C224.686 119.539 223.307 121.179 221.548 122.417C219.811 123.633 217.661 124.382 215.099 124.664C213.492 124.838 209.616 124.947 203.47 124.99H187.216V77.2376ZM196.858 85.1855V96.2278H203.177C206.934 96.2278 209.268 96.1735 210.18 96.065C211.831 95.8695 213.123 95.3049 214.056 94.3712C215.012 93.4157 215.49 92.167 215.49 90.6252C215.49 89.1486 215.077 87.9542 214.252 87.0422C213.448 86.1084 212.243 85.5438 210.636 85.3484C209.681 85.2398 206.934 85.1855 202.395 85.1855H196.858ZM196.858 104.176V116.944H205.783C209.257 116.944 211.461 116.847 212.395 116.651C213.828 116.391 214.99 115.761 215.88 114.762C216.792 113.741 217.249 112.384 217.249 110.69C217.249 109.257 216.901 108.041 216.206 107.042C215.511 106.043 214.502 105.316 213.177 104.86C211.874 104.404 209.029 104.176 204.643 104.176H196.858ZM233.437 101.407C233.437 96.5427 234.165 92.4602 235.62 89.1594C236.706 86.7273 238.182 84.5449 240.05 82.6122C241.939 80.6795 244.002 79.2463 246.239 78.3126C249.214 77.0531 252.645 76.4233 256.532 76.4233C263.568 76.4233 269.192 78.6057 273.405 82.9705C277.639 87.3353 279.757 93.4048 279.757 101.179C279.757 108.888 277.661 114.925 273.47 119.29C269.279 123.633 263.676 125.804 256.662 125.804C249.561 125.804 243.915 123.644 239.724 119.322C235.533 114.979 233.437 109.007 233.437 101.407ZM243.372 101.081C243.372 106.488 244.621 110.593 247.118 113.394C249.615 116.174 252.786 117.563 256.63 117.563C260.473 117.563 263.622 116.184 266.076 113.427C268.551 110.647 269.789 106.488 269.789 100.951C269.789 95.4786 268.584 91.3961 266.174 88.7034C263.785 86.0107 260.604 84.6643 256.63 84.6643C252.656 84.6643 249.453 86.0324 247.02 88.7686C244.588 91.483 243.372 95.5872 243.372 101.081ZM285.359 101.407C285.359 96.5427 286.087 92.4602 287.542 89.1594C288.627 86.7273 290.104 84.5449 291.972 82.6122C293.861 80.6795 295.924 79.2463 298.16 78.3126C301.135 77.0531 304.567 76.4233 308.454 76.4233C315.489 76.4233 321.114 78.6057 325.327 82.9705C329.561 87.3353 331.678 93.4048 331.678 101.179C331.678 108.888 329.583 114.925 325.392 119.29C321.201 123.633 315.598 125.804 308.584 125.804C301.483 125.804 295.837 123.644 291.646 119.322C287.455 114.979 285.359 109.007 285.359 101.407ZM295.294 101.081C295.294 106.488 296.543 110.593 299.04 113.394C301.537 116.174 304.708 117.563 308.551 117.563C312.395 117.563 315.544 116.184 317.998 113.427C320.473 110.647 321.711 106.488 321.711 100.951C321.711 95.4786 320.506 91.3961 318.095 88.7034C315.707 86.0107 312.525 84.6643 308.551 84.6643C304.577 84.6643 301.374 86.0324 298.942 88.7686C296.51 91.483 295.294 95.5872 295.294 101.081Z" fill="#FFB713"/>
<path d="M327.967 102.938L322.169 108.964V124.99H315.915V77.5634H322.169V101.016L343.244 77.5634H350.801L332.136 98.508L352.267 124.99H344.775L327.967 102.938Z" fill="#FFB713"/>
<path d="M356.865 124.99V77.5634H370.252C374.378 77.5634 378.027 78.4754 381.197 80.2995C384.368 82.1236 386.811 84.7186 388.526 88.0845C390.263 91.4504 391.143 95.3158 391.164 99.6806V102.71C391.164 107.183 390.296 111.103 388.559 114.469C386.843 117.835 384.378 120.419 381.165 122.221C377.972 124.024 374.248 124.947 369.992 124.99H356.865ZM363.119 82.7099V119.876H369.699C374.52 119.876 378.265 118.378 380.936 115.381C383.629 112.384 384.976 108.117 384.976 102.58V99.8109C384.976 94.4254 383.705 90.2452 381.165 87.2702C378.646 84.2735 375.062 82.7534 370.415 82.7099H363.119Z" fill="#FFB713"/>
<path d="M426.144 112.612H406.274L401.812 124.99H395.362L413.473 77.5634H418.945L437.088 124.99H430.671L426.144 112.612ZM408.163 107.466H424.287L416.209 85.2832L408.163 107.466Z" fill="#FFB713"/>
<path d="M449.907 101.374L462.285 77.5634H469.386L453.034 107.303V124.99H446.78V107.303L430.429 77.5634H437.595L449.907 101.374Z" fill="#FFB713"/>
<path d="M255.309 161.48H249.719V160.701L252.672 157.419C253.11 156.923 253.41 156.521 253.574 156.212C253.742 155.9 253.826 155.578 253.826 155.246C253.826 154.8 253.692 154.435 253.422 154.15C253.153 153.865 252.793 153.722 252.344 153.722C251.805 153.722 251.385 153.876 251.084 154.185C250.787 154.49 250.639 154.916 250.639 155.462H249.555C249.555 154.677 249.807 154.042 250.311 153.558C250.819 153.074 251.496 152.832 252.344 152.832C253.137 152.832 253.764 153.041 254.225 153.459C254.686 153.873 254.916 154.425 254.916 155.117C254.916 155.957 254.381 156.957 253.311 158.117L251.026 160.595H255.309V161.48ZM258.033 156.687H258.848C259.36 156.679 259.762 156.544 260.055 156.283C260.348 156.021 260.494 155.667 260.494 155.222C260.494 154.222 259.996 153.722 259 153.722C258.531 153.722 258.156 153.857 257.875 154.126C257.598 154.392 257.459 154.746 257.459 155.187H256.375C256.375 154.511 256.621 153.951 257.114 153.505C257.61 153.056 258.239 152.832 259 152.832C259.805 152.832 260.436 153.044 260.893 153.47C261.35 153.896 261.578 154.488 261.578 155.246C261.578 155.617 261.457 155.976 261.215 156.324C260.977 156.671 260.651 156.931 260.237 157.103C260.705 157.251 261.067 157.498 261.321 157.841C261.578 158.185 261.707 158.605 261.707 159.101C261.707 159.867 261.457 160.474 260.957 160.923C260.457 161.373 259.807 161.597 259.006 161.597C258.205 161.597 257.553 161.38 257.049 160.947C256.549 160.513 256.299 159.941 256.299 159.23H257.389C257.389 159.679 257.535 160.039 257.828 160.308C258.121 160.578 258.514 160.712 259.006 160.712C259.53 160.712 259.93 160.576 260.207 160.302C260.485 160.029 260.623 159.636 260.623 159.125C260.623 158.628 260.471 158.248 260.166 157.982C259.862 157.716 259.422 157.58 258.848 157.572H258.033V156.687Z" fill="white"/>
<path d="M275.461 147.445V148.98H276.645V149.818H275.461V153.75C275.461 154.004 275.514 154.195 275.619 154.324C275.725 154.449 275.904 154.511 276.158 154.511C276.283 154.511 276.455 154.488 276.674 154.441V155.32C276.389 155.398 276.111 155.437 275.842 155.437C275.358 155.437 274.992 155.291 274.746 154.998C274.5 154.705 274.377 154.289 274.377 153.75V149.818H273.223V148.98H274.377V147.445H275.461ZM279 149.748C279.481 149.158 280.106 148.863 280.875 148.863C282.215 148.863 282.891 149.619 282.902 151.131V155.32H281.818V151.125C281.815 150.668 281.709 150.33 281.502 150.111C281.299 149.892 280.981 149.783 280.547 149.783C280.195 149.783 279.887 149.877 279.621 150.064C279.356 150.252 279.149 150.498 279 150.802V155.32H277.916V146.32H279V149.748Z" fill="white"/>
<path d="M346.221 160.56H350.264V161.48H345.09V152.949H346.221V160.56Z" fill="white"/>
<path d="M352.622 152.369L353.243 152.791C352.88 153.287 352.692 153.822 352.681 154.396V155.193H351.603V154.513C351.603 154.115 351.696 153.72 351.884 153.33C352.075 152.939 352.321 152.619 352.622 152.369ZM357.714 161.48H356.624V154.255L354.438 155.058V154.074L357.544 152.908H357.714V161.48ZM366.397 153.558L362.864 161.48H361.728L365.249 153.839H360.632V152.949H366.397V153.558Z" fill="white"/>
</g>
<defs>
<radialGradient id="paint0_radial" cx="0" cy="0" r="1" gradientUnits="userSpaceOnUse" gradientTransform="translate(319.18 97.5) scale(232.32 139.392)">
<stop offset="0.37" stop-color="white"/>
<stop offset="0.43" stop-color="#F9F9F9" stop-opacity="0.99"/>
<stop offset="0.51" stop-color="#E7E7E7" stop-opacity="0.95"/>
<stop offset="0.6" stop-color="#CBCBCB" stop-opacity="0.9"/>
<stop offset="0.7" stop-color="#A2A2A2" stop-opacity="0.82"/>
<stop offset="0.81" stop-color="#6F6F6F" stop-opacity="0.72"/>
<stop offset="0.92" stop-color="#313131" stop-opacity="0.6"/>
<stop offset="1" stop-opacity="0.5"/>
</radialGradient>
<clipPath id="clip0">
<rect width="638.2" height="197.57" fill="white"/>
</clipPath>
</defs>
</svg>
